<svg width="256" height="256" viewBox="0 0 256 256" fill="none" xmlns="http://www.w3.org/2000/svg">
<g clip-path="url(#clip0_49_490)">
<path d="M0 128C0 57.3076 57.3076 0 128 0C198.692 0 256 57.3076 256 128C256 198.692 198.692 256 128 256C57.3076 256 0 198.692 0 128Z" fill="url(#paint0_radial_49_490)"/>
<path d="M156.745 73.8312C156.431 74.3204 156.331 74.906 156.482 75.4673C156.632 76.0281 157.02 76.5186 157.547 76.8229C158.074 77.1272 158.693 77.2181 159.253 77.0675C159.815 76.9174 160.272 76.5382 160.538 76.0213C160.766 75.5809 160.99 75.1474 161.21 74.7206C165.197 66.9942 169.212 59.2195 173.204 51.4825C173.426 51.0539 173.651 50.6182 173.868 50.1969C173.963 50.012 173.98 49.7918 173.92 49.5876C173.86 49.3833 173.728 49.2117 173.548 49.1078C173.368 49.0038 173.153 48.9752 172.946 49.0254C172.74 49.0757 172.558 49.2007 172.445 49.3756C172.189 49.7741 171.924 50.187 171.663 50.5928C166.959 57.9191 162.234 65.2832 157.536 72.599C157.276 73.0029 157.013 73.4137 156.745 73.8312Z" fill="url(#paint1_linear_49_490)"/>
<path d="M100.067 147.762C100.452 147.161 100.573 146.441 100.388 145.751C100.204 145.062 99.7281 144.461 99.0819 144.088C98.4357 143.714 97.6767 143.603 96.988 143.788C96.2984 143.973 95.7357 144.438 95.4073 145.072C94.9503 145.953 94.4934 146.834 94.0364 147.716C85.8109 163.577 77.5855 179.437 69.36 195.298C68.903 196.18 68.446 197.061 67.9891 197.942C68.5237 197.106 69.0583 196.269 69.5929 195.433C79.2162 180.379 88.8394 165.325 98.4626 150.271C98.9973 149.435 99.5319 148.598 100.067 147.762Z" fill="url(#paint2_linear_49_490)"/>
<path d="M131.19 163.328C131.574 162.726 131.695 162.006 131.51 161.316C131.326 160.628 130.851 160.026 130.206 159.654C129.561 159.281 128.803 159.171 128.114 159.356C127.424 159.54 126.861 160.005 126.531 160.638C126.055 161.553 125.579 162.467 125.103 163.381C116.534 179.836 107.966 196.292 99.397 212.747C98.921 213.661 98.4449 214.576 97.9689 215.49C98.5226 214.621 99.0763 213.751 99.63 212.882C109.596 197.233 119.563 181.585 129.529 165.936C130.083 165.067 130.637 164.198 131.19 163.328Z" fill="url(#paint3_linear_49_490)"/>
<path fill-rule="evenodd" clip-rule="evenodd" d="M131.397 183.007C133.626 188.617 133.413 190.26 133.413 190.26L129.129 197.681L127.692 191.439C127.692 191.439 123.463 173.69 107.081 164.232C90.6992 154.774 73.2142 159.986 73.2142 159.986L67.0901 161.863L71.3746 154.442C73.7441 153.696 75.6096 153.039 78.6275 152.625C85.6297 151.6 98.2303 151.003 110.597 158.143C122.928 165.262 128.729 176.451 131.397 183.007Z" fill="#FF00A2"/>
<path fill-rule="evenodd" clip-rule="evenodd" d="M73.8281 150.192L79.9523 148.315C79.9523 148.315 97.4373 143.103 113.819 152.561C130.201 162.02 134.43 179.768 134.43 179.768L135.867 186.01L139.565 179.604L155.971 151.188C158.793 146.301 165.02 135.603 168.205 121.379C171.39 107.156 171.507 89.3588 162.759 70.3689L160.107 72.3892L160.53 69.0817C118.886 72.9213 99.5063 105.716 93.9324 115.371L77.5267 143.786L73.8281 150.192ZM85.3655 140.954L98.5853 118.057C104.074 108.55 119.812 80.8239 157.726 76.512C165.214 93.7348 165.069 109.225 162.28 121.68C159.403 134.526 154.14 143.614 151.318 148.502L138.135 171.336C135.509 164.75 129.666 153.592 117.335 146.472C104.968 139.333 92.3677 139.929 85.3655 140.954Z" fill="#FF00A2"/>
<path d="M136.546 129.562C135.817 126.841 136.377 123.146 137.374 120.066C135.203 122.469 132.284 124.802 129.562 125.532C126.842 126.26 123.146 125.7 120.066 124.705C122.47 126.874 124.802 129.794 125.531 132.515C126.26 135.236 125.7 138.932 124.704 142.012C126.873 139.608 129.794 137.276 132.515 136.546C135.236 135.817 138.931 136.377 142.011 137.373C139.608 135.204 137.276 132.283 136.546 129.562Z" fill="#FF00A1"/>
<path d="M152.99 112.23C152.58 110.266 153.094 107.541 153.89 105.254C152.306 107.087 150.207 108.895 148.299 109.522C146.393 110.148 143.856 109.867 141.76 109.246C143.347 110.75 144.859 112.805 145.269 114.77C145.68 116.735 145.165 119.458 144.37 121.746C145.953 119.912 148.054 118.106 149.96 117.478C151.867 116.851 154.404 117.132 156.499 117.753C154.913 116.251 153.4 114.194 152.99 112.23Z" fill="#FF00A1"/>
<path d="M127.568 104.501C126.306 105.937 124.624 107.347 123.08 107.818C121.537 108.288 119.467 108.026 117.751 107.499C119.065 108.722 120.329 110.381 120.692 111.954C121.056 113.526 120.679 115.687 120.066 117.499C121.328 116.062 123.01 114.654 124.554 114.182C126.096 113.711 128.166 113.974 129.882 114.501C128.568 113.279 127.305 111.618 126.941 110.046C126.577 108.475 126.955 106.312 127.568 104.501Z" fill="#FF00A1"/>
<path d="M145.037 95.1047C144.822 93.8477 145.195 92.0828 145.735 90.5937C144.715 91.8055 143.375 93.0122 142.177 93.4543C140.981 93.8955 139.41 93.765 138.121 93.4062C139.077 94.3435 139.975 95.6371 140.191 96.8951C140.407 98.1525 140.033 99.917 139.493 101.406C140.513 100.194 141.854 98.988 143.051 98.5456C144.247 98.1038 145.818 98.2348 147.107 98.5931C146.152 97.6566 145.253 96.3622 145.037 95.1047Z" fill="#FF00A1"/>
<path d="M128 0C198.692 0 256 57.3076 256 128C256 198.692 198.692 256 128 256C57.3076 256 0 198.692 0 128C0 57.3076 57.3076 0 128 0ZM139.587 251.743C139.365 251.77 139.192 251.861 139.07 252.016C138.948 252.171 138.901 252.36 138.928 252.582C138.954 252.804 139.045 252.976 139.2 253.098C139.355 253.22 139.544 253.268 139.766 253.241C139.988 253.215 140.16 253.124 140.282 252.969C140.404 252.814 140.452 252.625 140.426 252.402C140.399 252.18 140.308 252.008 140.153 251.886C139.998 251.764 139.809 251.717 139.587 251.743ZM119.518 248.554L118.773 248.516C117.998 248.475 117.388 248.645 116.943 249.026C116.498 249.411 116.256 249.972 116.218 250.709C116.183 251.373 116.368 251.898 116.772 252.283C117.177 252.671 117.768 252.886 118.543 252.927L119.374 252.97V252.969L120.437 253.025L120.761 246.843L119.611 246.782L119.518 248.554ZM118.718 249.573L119.463 249.612L119.342 251.907L118.598 251.868C118.218 251.848 117.929 251.737 117.733 251.535C117.534 251.333 117.444 251.053 117.463 250.699C117.483 250.325 117.602 250.039 117.822 249.841C118.039 249.643 118.338 249.553 118.718 249.573ZM133.183 246.924L133.326 249.242C133.375 250.085 133.105 250.524 132.518 250.561C132.306 250.574 132.138 250.508 132.016 250.364C131.89 250.221 131.819 250.01 131.802 249.731L131.634 247.02L130.454 247.093L130.641 250.096C130.674 250.635 130.833 251.045 131.118 251.324C131.403 251.604 131.79 251.728 132.277 251.698C132.62 251.677 132.871 251.584 133.029 251.42C133.188 251.259 133.279 251.021 133.304 250.708L133.435 250.699L133.595 251.529L134.648 251.464L134.362 246.851L133.183 246.924ZM139.497 246.471L138.328 246.61L136.968 246.773L137.098 247.855L138.457 247.692L138.747 250.117V250.118L138.876 251.2L141.482 250.889L141.354 249.806L139.916 249.978L139.626 247.553L141.323 247.351L141.193 246.269L139.497 246.471ZM110.985 246.945L112.06 247.063L111.953 248.035C111.897 248.546 111.782 248.933 111.61 249.194C111.438 249.456 111.21 249.571 110.924 249.54C110.705 249.516 110.552 249.44 110.467 249.311C110.379 249.181 110.349 248.98 110.379 248.708L109.209 248.58C109.143 249.184 109.209 249.659 109.407 250.005C109.603 250.351 109.919 250.549 110.355 250.597C111.092 250.678 111.525 250.346 111.653 249.603L111.816 249.62L111.839 250.672L111.899 250.678L113.633 250.869L113.744 249.863L112.946 249.775L113.229 247.191L114.201 247.299L114.312 246.294L113.34 246.187H113.341L111.096 245.94L110.985 246.945ZM95.2256 249.425L96.3779 249.688L96.9893 247L97.0996 247.025C97.0816 247.34 97.143 247.591 97.2822 247.777C97.4181 247.966 97.6507 248.099 97.9795 248.174C98.5434 248.302 99.0281 248.197 99.4326 247.86C99.8343 247.523 100.119 246.981 100.289 246.235C100.46 245.484 100.437 244.872 100.22 244.399C99.9995 243.926 99.6101 243.625 99.0518 243.498C98.7373 243.427 98.4681 243.445 98.2441 243.552C98.0201 243.659 97.851 243.857 97.7373 244.147L97.6367 244.124L97.6729 243.229L96.6768 243.048L95.2256 249.425ZM105.263 244.865C104.607 244.755 104.063 244.876 103.633 245.228C103.202 245.58 102.923 246.132 102.797 246.883C102.67 247.637 102.754 248.249 103.046 248.72C103.338 249.193 103.812 249.485 104.468 249.596C105.124 249.706 105.668 249.584 106.099 249.232C106.529 248.883 106.807 248.332 106.934 247.578C107.06 246.827 106.977 246.215 106.686 245.741C106.394 245.268 105.919 244.976 105.263 244.865ZM152.68 242.315C151.864 242.539 151.313 242.886 151.027 243.357C150.741 243.826 150.693 244.46 150.883 245.261L151.856 249.358L152.921 249.105L152.8 248.273L152.881 248.255C153.006 248.545 153.176 248.742 153.389 248.847C153.6 248.955 153.877 248.969 154.219 248.888C154.781 248.754 155.169 248.446 155.384 247.965C155.595 247.484 155.613 246.873 155.437 246.129C155.258 245.379 154.967 244.84 154.563 244.512C154.157 244.184 153.675 244.086 153.118 244.219C152.804 244.293 152.571 244.428 152.417 244.623C152.263 244.818 152.199 245.071 152.225 245.381L152.131 245.402L152 244.852C151.904 244.447 151.921 244.121 152.05 243.872C152.178 243.621 152.439 243.442 152.832 243.337L154.265 242.951L153.984 241.961L152.68 242.315ZM104.373 246.188C104.562 245.996 104.796 245.924 105.077 245.971C105.355 246.017 105.554 246.162 105.672 246.406C105.787 246.653 105.81 246.977 105.742 247.378C105.674 247.782 105.546 248.08 105.357 248.272C105.166 248.464 104.931 248.537 104.653 248.49C104.373 248.443 104.175 248.297 104.06 248.054C103.944 247.81 103.92 247.487 103.988 247.083C104.056 246.682 104.184 246.384 104.373 246.188ZM153.053 245.377C153.353 245.306 153.605 245.357 153.811 245.529C154.013 245.702 154.163 245.995 154.261 246.408C154.355 246.807 154.35 247.133 154.243 247.389C154.137 247.647 153.939 247.811 153.647 247.88C153.353 247.95 153.11 247.902 152.918 247.735C152.723 247.569 152.574 247.268 152.471 246.833C152.367 246.398 152.358 246.066 152.44 245.837C152.521 245.609 152.725 245.455 153.053 245.377ZM160.064 242.566L160.725 244.776C160.969 245.595 160.807 246.089 160.239 246.259C160.036 246.32 159.858 246.294 159.706 246.182C159.552 246.07 159.434 245.881 159.354 245.613L158.577 243.011L157.444 243.349L158.306 246.231C158.46 246.749 158.709 247.113 159.05 247.32C159.391 247.528 159.796 247.562 160.264 247.422C160.592 247.324 160.815 247.176 160.933 246.98C161.051 246.787 161.086 246.535 161.039 246.225L161.164 246.187L161.509 246.958L162.52 246.656L161.196 242.228L160.064 242.566ZM167.977 245.821C167.798 245.738 167.603 245.733 167.393 245.81C167.182 245.886 167.036 246.014 166.952 246.192C166.869 246.371 166.864 246.565 166.94 246.775C167.017 246.986 167.145 247.133 167.323 247.217C167.502 247.3 167.697 247.305 167.907 247.229C168.117 247.152 168.264 247.024 168.348 246.846C168.431 246.667 168.436 246.472 168.359 246.262C168.283 246.051 168.155 245.905 167.977 245.821ZM97.7295 244.651C97.9022 244.482 98.1536 244.434 98.4824 244.509C98.7826 244.577 98.9866 244.734 99.0947 244.979C99.2 245.224 99.2054 245.553 99.1113 245.967C99.0204 246.366 98.8714 246.658 98.6631 246.84C98.4541 247.025 98.2031 247.084 97.9111 247.018C97.6164 246.951 97.42 246.8 97.3213 246.565C97.2198 246.331 97.2181 245.995 97.3174 245.559C97.4166 245.122 97.5541 244.82 97.7295 244.651ZM89.3848 241.873L89.9697 242.143L89.8271 242.637L88.9814 245.569L90.1172 245.896L90.7246 243.789C90.864 243.306 91.0321 242.981 91.2285 242.813C91.4214 242.648 91.6507 242.604 91.916 242.681C92.1198 242.74 92.2601 242.855 92.3379 243.025C92.412 243.198 92.4131 243.411 92.3398 243.665L91.5752 246.317L92.71 246.645L93.5557 243.712C93.7015 243.206 93.6991 242.781 93.5479 242.435C93.3958 242.091 93.1091 241.859 92.6875 241.737C92.3944 241.653 92.1237 241.662 91.876 241.766C91.6282 241.87 91.4254 242.063 91.2686 242.345L91.1387 242.307L91.335 241.393L89.6504 240.952L89.3848 241.873ZM166.029 240.725L165.004 241.096L163.717 241.562L164.088 242.587L165.375 242.12L166.207 244.416V244.417L166.578 245.441L169.046 244.548L168.675 243.522L167.313 244.016L166.482 241.72L168.089 241.138L167.718 240.113L166.029 240.725ZM127.5 11C63.1588 11 11 63.1588 11 127.5C11 191.841 63.1588 244 127.5 244C191.841 244 244 191.841 244 127.5C244 63.1588 191.841 11 127.5 11ZM83.4131 239.874C83.6111 239.907 83.8124 239.948 84.0166 239.998C84.218 240.047 84.4178 240.107 84.6152 240.177C85.0784 240.34 85.3991 240.573 85.5762 240.875C85.7502 241.176 85.7654 241.531 85.6221 241.939C85.492 242.31 85.2944 242.562 85.0293 242.693C84.7615 242.824 84.4528 242.827 84.1045 242.705C83.8826 242.627 83.6978 242.504 83.5508 242.335C83.4001 242.168 83.2973 241.969 83.2432 241.737L82.2119 242.096C82.2336 242.464 82.3748 242.793 82.6367 243.082C82.8958 243.37 83.2506 243.593 83.7002 243.751C84.4324 244.008 85.0659 244.009 85.5996 243.753C86.1332 243.497 86.5248 243.012 86.7754 242.299C87.0327 241.567 87.0142 240.928 86.7188 240.384C86.4223 239.842 85.8774 239.433 85.085 239.154C84.8602 239.075 84.6272 239.002 84.3857 238.936C84.1442 238.869 83.9034 238.822 83.6641 238.793L83.4131 239.874ZM173.083 238.493C172.631 238.339 172.039 238.418 171.308 238.731C171.118 238.813 170.943 238.897 170.784 238.984C170.623 239.072 170.461 239.17 170.299 239.277L170.829 240.25C170.998 240.149 171.15 240.061 171.284 239.984C171.417 239.912 171.545 239.849 171.668 239.796C172.05 239.632 172.358 239.588 172.589 239.663C172.817 239.739 173 239.939 173.139 240.262L173.331 240.711V240.71L173.728 241.636L171.844 242.443L172.271 243.441L174.154 242.635L174.704 243.918L175.787 243.454L175.237 242.171L176.256 241.735L175.828 240.737L174.81 241.173L174.306 239.995L174.177 239.694C173.9 239.048 173.535 238.648 173.083 238.493ZM76.957 237.089C77.1469 237.14 77.3169 237.186 77.4658 237.229C77.6108 237.274 77.7449 237.323 77.8682 237.374C78.2518 237.534 78.497 237.723 78.6045 237.941C78.7093 238.158 78.6949 238.429 78.5596 238.754L78.4766 238.951L77.9824 240.134L76.0918 239.345L75.6738 240.348L77.5645 241.136L77.0283 242.424L78.1152 242.877L78.6514 241.589L79.6748 242.016L80.0918 241.014L79.0693 240.587L79.458 239.657L79.6895 239.102C79.9601 238.452 79.9933 237.912 79.7891 237.48C79.5848 237.049 79.1149 236.68 78.3799 236.373C78.1896 236.294 78.0078 236.228 77.835 236.175C77.6592 236.12 77.4757 236.072 77.2852 236.03L76.957 237.089ZM180.316 234.842C180.112 234.895 179.885 234.972 179.634 235.074C179.379 235.175 179.093 235.304 178.778 235.461C178.063 235.817 177.584 236.188 177.342 236.575C177.101 236.965 177.089 237.38 177.308 237.819C177.454 238.113 177.661 238.307 177.929 238.401C178.195 238.499 178.53 238.508 178.935 238.427L180.254 238.17C180.346 238.153 180.42 238.153 180.476 238.167C180.53 238.185 180.574 238.227 180.606 238.292C180.658 238.396 180.603 238.516 180.443 238.65C180.282 238.789 179.997 238.96 179.589 239.163C179.467 239.224 179.315 239.295 179.134 239.375C178.953 239.455 178.739 239.544 178.492 239.641L178.866 240.677C179.092 240.597 179.305 240.515 179.504 240.433C179.7 240.351 179.888 240.267 180.064 240.179C180.827 239.799 181.341 239.407 181.607 239.002C181.875 238.599 181.897 238.175 181.676 237.73C181.537 237.452 181.358 237.264 181.137 237.166C180.915 237.072 180.646 237.053 180.33 237.109L178.789 237.39C178.69 237.406 178.612 237.406 178.555 237.389C178.498 237.372 178.453 237.332 178.422 237.27C178.369 237.163 178.41 237.045 178.544 236.917C178.679 236.791 178.924 236.64 179.278 236.464C179.406 236.4 179.587 236.324 179.82 236.233C180.054 236.143 180.346 236.037 180.694 235.915L180.316 234.842ZM70.5762 238.499C70.3748 238.401 70.1806 238.385 69.9941 238.449C69.8077 238.514 69.6652 238.646 69.5674 238.848C69.4696 239.049 69.4531 239.243 69.5176 239.43C69.5821 239.616 69.7157 239.759 69.917 239.856C70.118 239.954 70.3118 239.971 70.498 239.906C70.6845 239.842 70.827 239.708 70.9248 239.507C71.0224 239.306 71.039 239.112 70.9746 238.926C70.9101 238.739 70.7774 238.597 70.5762 238.499ZM70.583 233.883L71.8145 234.48L70.4795 237.229L70.2715 237.658L72.6328 238.805L73.1094 237.824L71.8066 237.191L72.874 234.995L74.4111 235.742L74.8877 234.762L73.3496 234.016H73.3506L72.3691 233.539H72.3701L71.0596 232.902L70.583 233.883ZM186.141 232.343C185.557 232.201 184.919 232.327 184.225 232.724C184.061 232.817 183.876 232.932 183.671 233.065C183.466 233.199 183.248 233.362 183.017 233.555L183.668 234.468C183.833 234.33 183.999 234.2 184.164 234.079C184.331 233.961 184.505 233.849 184.687 233.745C185.09 233.514 185.459 233.435 185.791 233.507C185.974 233.547 186.138 233.636 186.286 233.771L183.739 235.226C183.818 235.398 183.909 235.575 184.013 235.757C184.379 236.398 184.815 236.797 185.319 236.954C185.824 237.111 186.363 237.026 186.936 236.699C187.521 236.365 187.872 235.923 187.987 235.375C188.1 234.829 187.969 234.227 187.595 233.571C187.21 232.897 186.725 232.488 186.141 232.343ZM186.742 234.453C186.843 234.696 186.881 234.918 186.853 235.119C186.813 235.396 186.659 235.611 186.392 235.764C186.144 235.905 185.912 235.943 185.693 235.877C185.472 235.812 185.284 235.645 185.13 235.375L186.742 234.453ZM190.005 229.509L192.8 233.813L191.319 234.775L191.896 235.664L194.343 234.075L194.342 234.074L195.823 233.113L195.246 232.225L193.765 233.186L190.97 228.882L190.005 229.509ZM67.1592 230.528C66.5782 230.204 66.0257 230.135 65.502 230.321C64.9781 230.508 64.5295 230.935 64.1582 231.6C63.7856 232.267 63.6583 232.872 63.7754 233.413C63.8911 233.957 64.2393 234.391 64.8203 234.716C65.4015 235.04 65.9546 235.109 66.4785 234.922C67.0007 234.737 67.4487 234.312 67.8213 233.645C68.1925 232.98 68.3198 232.375 68.2041 231.831C68.0884 231.287 67.7402 230.853 67.1592 230.528ZM65.876 231.475C66.1181 231.357 66.3637 231.368 66.6123 231.507C66.8585 231.644 66.997 231.848 67.0264 232.117C67.0517 232.388 66.9649 232.701 66.7666 233.056C66.5668 233.413 66.3457 233.652 66.1035 233.77C65.8588 233.886 65.6133 233.875 65.3672 233.737C65.1185 233.598 64.9799 233.395 64.9531 233.127C64.9264 232.859 65.0132 232.546 65.2129 232.188C65.4113 231.833 65.6324 231.595 65.876 231.475ZM58.0684 228.47C57.7784 228.926 57.667 229.351 57.7334 229.744C57.7999 230.138 58.0391 230.466 58.4512 230.729C58.7405 230.912 58.9978 230.985 59.2227 230.945C59.4459 230.908 59.6597 230.77 59.8633 230.531L59.9736 230.601L59.6162 231.366L60.5068 231.933L62.9873 228.032L61.9902 227.398L60.752 229.345C60.2934 230.066 59.8138 230.267 59.3135 229.949C59.1345 229.835 59.038 229.683 59.0234 229.495C59.0065 229.305 59.073 229.093 59.2227 228.857L60.6807 226.565L59.6836 225.931L58.0684 228.47ZM203.382 222.258C203.118 222.299 202.878 222.408 202.663 222.586C202.448 222.764 202.295 222.978 202.205 223.229C202.115 223.481 202.09 223.739 202.131 224.003C202.172 224.267 202.281 224.507 202.459 224.722C202.637 224.937 202.851 225.09 203.103 225.18C203.354 225.27 203.612 225.295 203.876 225.254C204.14 225.213 204.381 225.103 204.596 224.926C204.811 224.748 204.964 224.534 205.054 224.282C205.144 224.031 205.168 223.773 205.127 223.509C205.086 223.245 204.977 223.005 204.8 222.79C204.622 222.575 204.407 222.422 204.155 222.332C203.904 222.242 203.646 222.217 203.382 222.258ZM46.0674 217.022C45.803 216.984 45.5456 217.011 45.2949 217.104C45.0442 217.196 44.8309 217.351 44.6553 217.567C44.4797 217.784 44.3724 218.025 44.334 218.289C44.2956 218.554 44.3226 218.812 44.415 219.062C44.5075 219.313 44.6631 219.526 44.8799 219.701C45.0968 219.877 45.3371 219.984 45.6016 220.022C45.8659 220.061 46.1234 220.034 46.374 219.941C46.6247 219.849 46.8381 219.694 47.0137 219.478C47.1893 219.261 47.2966 219.019 47.335 218.755C47.3732 218.491 47.3463 218.233 47.2539 217.982C47.1614 217.732 47.0059 217.518 46.7891 217.343C46.5723 217.167 46.3317 217.061 46.0674 217.022ZM213.302 211.543C212.755 211.549 212.244 211.798 211.771 212.29C211.287 212.793 211.043 213.304 211.038 213.824C211.032 214.346 211.261 214.832 211.726 215.279C212.178 215.715 212.629 215.945 213.08 215.972C213.531 215.998 213.944 215.817 214.319 215.428C214.555 215.183 214.691 214.914 214.727 214.621C214.762 214.333 214.691 214.048 214.513 213.768L214.591 213.686C215.596 214.658 215.512 215.806 214.339 217.129L215.191 217.828C216.034 216.864 216.453 215.946 216.446 215.072C216.44 214.199 216.014 213.354 215.168 212.54L214.869 212.253L214.681 212.084C214.24 211.718 213.78 211.538 213.302 211.543ZM213.219 212.704C213.449 212.692 213.664 212.782 213.865 212.976C214.079 213.181 214.185 213.402 214.184 213.639C214.182 213.875 214.072 214.106 213.854 214.332C213.645 214.55 213.429 214.665 213.207 214.678C212.985 214.69 212.772 214.599 212.569 214.403C212.354 214.196 212.245 213.974 212.242 213.737C212.24 213.505 212.345 213.278 212.557 213.059C212.768 212.839 212.989 212.721 213.219 212.704ZM217.713 206.032L215.163 209.004L215.937 209.668L217.462 207.891L217.588 207.999C217.507 208.852 217.557 209.584 217.739 210.192C217.924 210.803 218.238 211.298 218.682 211.679C219.156 212.086 219.62 212.262 220.073 212.207C220.529 212.154 220.977 211.869 221.418 211.355C221.7 211.027 221.896 210.649 222.006 210.223C222.116 209.796 222.119 209.397 222.017 209.025L220.987 209.026C221.033 209.322 221.02 209.615 220.949 209.907C220.877 210.201 220.76 210.442 220.599 210.63C220.415 210.844 220.225 210.956 220.028 210.967C219.832 210.982 219.626 210.898 219.412 210.714C218.986 210.348 218.718 209.824 218.608 209.14C218.501 208.457 218.559 207.613 218.783 206.606L217.883 205.834L217.713 206.032ZM33.7217 203.58C34.1228 203.774 34.4627 204.029 34.7402 204.347C35.5724 205.298 35.4526 206.243 34.3809 207.181C33.893 207.607 33.4179 207.824 32.9561 207.83C32.4901 207.836 32.0929 207.651 31.7637 207.274C31.6087 207.097 31.4988 206.904 31.4346 206.693C31.3663 206.483 31.3503 206.275 31.3867 206.069L30.3252 206.141C30.2486 206.424 30.2648 206.728 30.375 207.053C30.483 207.379 30.6726 207.696 30.9424 208.005C31.5413 208.689 32.2131 209.036 32.958 209.045C33.701 209.055 34.4528 208.729 35.2119 208.064C36.8133 206.663 36.9637 205.22 35.6641 203.734C35.2966 203.314 34.8723 202.979 34.3906 202.729L33.7217 203.58ZM224.723 202.282C223.059 201.012 221.786 200.956 220.902 202.113C220.019 203.271 220.408 204.484 222.071 205.754C223.781 207.059 225.078 207.134 225.962 205.977C226.846 204.819 226.432 203.588 224.723 202.282ZM221.775 202.779C222.185 202.244 222.93 202.389 224.011 203.214C225.138 204.075 225.497 204.774 225.088 205.31C224.686 205.836 223.921 205.669 222.794 204.809C221.713 203.983 221.373 203.306 221.775 202.779ZM223.198 203.323C223.017 203.321 222.874 203.389 222.769 203.527C222.663 203.666 222.634 203.822 222.685 203.995C222.735 204.169 222.856 204.329 223.048 204.476C223.24 204.622 223.426 204.696 223.606 204.699C223.787 204.702 223.931 204.634 224.037 204.495C224.143 204.357 224.17 204.201 224.12 204.027C224.068 203.856 223.946 203.696 223.754 203.55C223.562 203.404 223.377 203.328 223.198 203.323ZM29.8262 198.047L31.3086 199.95L27.8359 199.707L27.0352 200.331L29.3174 203.263L30.1191 202.638L28.6523 200.755L32.1621 201.047L32.9639 200.423L30.6279 197.423L29.8262 198.047ZM226.065 195.253L223.871 198.496L224.716 199.067L226.027 197.128L226.165 197.222C226.182 198.079 226.316 198.799 226.566 199.383C226.82 199.968 227.188 200.425 227.672 200.753C228.189 201.103 228.67 201.225 229.114 201.118C229.561 201.013 229.974 200.68 230.354 200.119C230.596 199.761 230.748 199.363 230.809 198.927C230.869 198.49 230.827 198.093 230.683 197.735L229.659 197.854C229.738 198.143 229.759 198.436 229.723 198.734C229.684 199.035 229.595 199.287 229.457 199.491C229.299 199.725 229.122 199.858 228.928 199.892C228.734 199.929 228.52 199.869 228.287 199.711C227.823 199.396 227.497 198.905 227.31 198.238C227.125 197.573 227.086 196.727 227.194 195.701L226.212 195.036L226.065 195.253ZM25.96 192.579C26.1116 192.732 26.2549 192.886 26.3896 193.04C26.522 193.196 26.6477 193.36 26.7666 193.532C27.0309 193.915 27.1414 194.275 27.0986 194.612C27.0739 194.798 26.9987 194.969 26.877 195.128L25.2109 192.715C25.0456 192.808 24.8763 192.914 24.7041 193.033C24.0968 193.453 23.7363 193.921 23.623 194.438C23.51 194.954 23.6417 195.484 24.0166 196.026C24.3998 196.581 24.8691 196.893 25.4248 196.961C25.979 197.027 26.5676 196.845 27.1895 196.415C27.8279 195.974 28.1939 195.455 28.2881 194.86C28.3797 194.267 28.1984 193.642 27.7441 192.984C27.6368 192.829 27.5081 192.655 27.3574 192.462C27.2067 192.269 27.025 192.066 26.8135 191.852L25.96 192.579ZM26.2354 195.641C26.002 195.762 25.7844 195.819 25.582 195.808C25.3031 195.792 25.0764 195.657 24.9014 195.404C24.7395 195.17 24.6815 194.941 24.7285 194.718C24.774 194.492 24.9249 194.291 25.1807 194.114L26.2354 195.641ZM22.334 186.525C22.4666 186.676 22.5964 186.835 22.7227 187.003C22.8474 187.169 22.9643 187.341 23.0732 187.52C23.3289 187.939 23.4294 188.323 23.375 188.669C23.319 189.013 23.1059 189.297 22.7363 189.522C22.4014 189.727 22.0893 189.796 21.8008 189.73C21.5107 189.662 21.2693 189.47 21.0771 189.155C20.9546 188.954 20.8899 188.741 20.8828 188.518C20.8718 188.293 20.9188 188.074 21.0234 187.86L19.998 187.484C19.7819 187.783 19.6835 188.127 19.7031 188.517C19.7213 188.904 19.8544 189.302 20.1025 189.709C20.5064 190.371 20.9962 190.773 21.5713 190.912C22.1465 191.052 22.7571 190.925 23.4023 190.531C24.0649 190.127 24.4544 189.621 24.5703 189.013C24.6837 188.406 24.5211 187.744 24.084 187.026C23.9599 186.823 23.8257 186.618 23.6807 186.414C23.5357 186.21 23.3791 186.02 23.2119 185.847L22.334 186.525ZM235.365 184.332C234.677 183.973 234.048 183.891 233.478 184.085C232.91 184.281 232.441 184.734 232.071 185.442C231.984 185.61 231.89 185.805 231.79 186.028C231.69 186.251 231.595 186.507 231.504 186.794L232.547 187.209C232.611 187.004 232.68 186.805 232.754 186.614C232.83 186.424 232.916 186.236 233.013 186.051C233.228 185.638 233.495 185.372 233.812 185.253C233.988 185.188 234.175 185.174 234.372 185.207L233.016 187.809C233.175 187.911 233.348 188.011 233.533 188.107C234.188 188.449 234.77 188.55 235.279 188.409C235.789 188.268 236.197 187.905 236.502 187.32C236.814 186.722 236.87 186.161 236.671 185.638C236.47 185.117 236.035 184.682 235.365 184.332ZM235.125 185.535C235.342 185.685 235.493 185.852 235.578 186.036C235.695 186.29 235.681 186.554 235.539 186.827C235.407 187.08 235.231 187.237 235.012 187.3C234.791 187.365 234.542 187.326 234.267 187.183L235.125 185.535ZM17.4629 181.225C16.9861 181.479 16.6797 181.795 16.5439 182.17C16.4083 182.545 16.4547 182.949 16.6846 183.38C16.8461 183.682 17.0347 183.872 17.25 183.948C17.4627 184.026 17.7168 184.01 18.0117 183.902L18.0645 184.002L15.6338 185.3L16.1904 186.343L21.96 183.263L21.4043 182.221L19.3008 183.343L19.3037 183.341C18.5882 183.723 18.0908 183.652 17.8115 183.129C17.7118 182.942 17.6969 182.765 17.7666 182.6C17.835 182.432 17.983 182.287 18.2109 182.165L20.6729 180.851L20.1162 179.809L17.4629 181.225ZM233.767 177.819C233.445 178.602 233.384 179.251 233.583 179.765C233.779 180.277 234.252 180.703 235.002 181.041L238.842 182.772L239.292 181.774L238.559 181.361L238.593 181.287C238.899 181.365 239.159 181.351 239.372 181.246C239.586 181.145 239.766 180.935 239.91 180.614C240.148 180.087 240.142 179.591 239.893 179.128C239.641 178.667 239.167 178.279 238.47 177.965C237.768 177.648 237.163 177.55 236.656 177.669C236.149 177.791 235.777 178.112 235.542 178.634C235.409 178.928 235.373 179.196 235.434 179.437C235.494 179.677 235.655 179.883 235.917 180.052L235.877 180.139L235.36 179.906C234.982 179.735 234.733 179.523 234.615 179.269C234.494 179.013 234.512 178.698 234.669 178.322L235.238 176.952L234.282 176.569L233.767 177.819ZM237.002 178.886C237.263 178.831 237.587 178.891 237.974 179.065C238.347 179.234 238.602 179.439 238.739 179.679C238.879 179.92 238.888 180.178 238.765 180.451C238.64 180.727 238.453 180.889 238.204 180.939C237.954 180.992 237.625 180.927 237.217 180.743H237.218L237.215 180.742L237.217 180.743C236.809 180.559 236.54 180.365 236.409 180.159C236.277 179.956 236.28 179.701 236.419 179.394C236.546 179.113 236.74 178.943 237.002 178.886ZM238.475 172.125L240.628 172.951C241.426 173.257 241.718 173.688 241.506 174.241C241.43 174.439 241.301 174.565 241.119 174.616C240.936 174.671 240.715 174.648 240.454 174.548L237.918 173.574L237.495 174.677L240.304 175.755C240.808 175.949 241.247 175.974 241.62 175.831C241.993 175.688 242.266 175.387 242.441 174.932C242.564 174.612 242.583 174.345 242.5 174.133C242.419 173.921 242.242 173.739 241.967 173.587L242.014 173.463L242.835 173.663L243.213 172.678L238.897 171.021L238.475 172.125ZM12.7646 168.766C12.6419 168.663 12.51 168.577 12.3662 168.514C11.8975 168.308 11.3617 168.324 10.7588 168.562C10.2021 168.782 9.83933 169.121 9.66992 169.578C9.50054 170.036 9.53776 170.574 9.78223 171.193L10.168 172.17L10.5908 173.241L16.3496 170.968L15.9268 169.896L13.8174 170.729L13.4326 169.752C13.4287 169.742 13.423 169.733 13.4189 169.723L15.1953 168.044L14.6904 166.766L12.7646 168.766ZM11.2969 169.686C11.5616 169.581 11.796 169.568 11.999 169.647C12.1994 169.728 12.3481 169.893 12.4463 170.142L12.8311 171.118L11.1533 171.781L10.7676 170.805C10.6694 170.556 10.6663 170.333 10.7578 170.138C10.8494 169.942 11.0293 169.791 11.2969 169.686ZM243.46 165.131C242.721 164.895 242.087 164.92 241.559 165.209C241.033 165.499 240.648 166.025 240.404 166.786C240.347 166.966 240.288 167.174 240.228 167.411C240.167 167.648 240.117 167.916 240.076 168.215L241.174 168.446C241.202 168.233 241.237 168.025 241.276 167.824C241.319 167.624 241.372 167.425 241.436 167.226C241.577 166.783 241.795 166.476 242.088 166.304C242.25 166.21 242.431 166.164 242.632 166.163L241.738 168.957C241.913 169.031 242.1 169.099 242.3 169.163C243.003 169.388 243.593 169.388 244.071 169.162C244.549 168.936 244.889 168.509 245.09 167.881C245.295 167.239 245.255 166.676 244.97 166.194C244.683 165.715 244.18 165.361 243.46 165.131ZM243.429 166.356C243.668 166.467 243.846 166.606 243.961 166.773C244.119 167.004 244.151 167.266 244.058 167.56C243.971 167.831 243.824 168.016 243.618 168.115C243.412 168.217 243.16 168.221 242.864 168.126L243.429 166.356ZM12.4043 161.269C11.8921 161.052 11.2746 161.063 10.5518 161.302C9.8258 161.541 9.32285 161.901 9.04297 162.379C8.76044 162.858 8.72311 163.413 8.93164 164.045C9.14036 164.677 9.50135 165.102 10.0137 165.318C10.5231 165.536 11.1406 165.525 11.8662 165.285C12.5894 165.046 13.0924 164.687 13.375 164.208C13.6576 163.729 13.6949 163.174 13.4863 162.542C13.2776 161.91 12.9166 161.485 12.4043 161.269ZM10.9307 162.449C11.317 162.322 11.6406 162.296 11.9014 162.372C12.1591 162.449 12.3326 162.622 12.4219 162.893C12.5103 163.16 12.4749 163.404 12.3145 163.622C12.1503 163.838 11.8745 164.01 11.4883 164.138C11.0991 164.266 10.7747 164.293 10.5166 164.216C10.2579 164.136 10.0845 163.962 9.99609 163.694C9.90677 163.424 9.94302 163.18 10.1045 162.965C10.266 162.749 10.5416 162.578 10.9307 162.449ZM248.153 160.388L244.737 159.508C244.056 159.332 243.529 159.328 243.155 159.496C242.781 159.667 242.522 160.034 242.377 160.597C242.312 160.85 242.265 161.092 242.235 161.321C242.206 161.551 242.191 161.794 242.191 162.049L243.399 162.22C243.39 161.815 243.417 161.489 243.48 161.241C243.538 161.019 243.609 160.859 243.694 160.761C243.78 160.663 243.886 160.61 244.015 160.601C244.143 160.592 244.301 160.61 244.486 160.658L248.911 161.799L249.186 160.735L249.531 159.393L248.48 159.121L248.153 160.388ZM10 154.472C10.0849 154.654 10.1645 154.843 10.2383 155.04C10.3114 155.234 10.3745 155.433 10.4287 155.635C10.5558 156.109 10.5443 156.505 10.3945 156.822C10.2439 157.136 9.95923 157.349 9.54102 157.461C9.16205 157.562 8.8433 157.542 8.58496 157.397C8.32586 157.25 8.1483 156.998 8.05273 156.642C7.99179 156.414 7.98961 156.191 8.0459 155.975C8.09866 155.756 8.20568 155.559 8.36621 155.384L7.48828 154.734C7.1967 154.96 7.00501 155.262 6.91406 155.642C6.82239 156.018 6.83855 156.437 6.96191 156.897C7.16279 157.647 7.51956 158.17 8.03223 158.466C8.54489 158.762 9.16646 158.813 9.89648 158.617C10.646 158.416 11.1617 158.039 11.4443 157.488C11.7241 156.938 11.7555 156.257 11.5381 155.445C11.4764 155.215 11.4047 154.982 11.3232 154.745C11.2417 154.508 11.1457 154.282 11.0342 154.068L10 154.472ZM249.828 153.454L246.368 152.771C245.678 152.634 245.151 152.66 244.788 152.849C244.424 153.04 244.186 153.422 244.073 153.992C244.023 154.249 243.989 154.493 243.973 154.724C243.957 154.955 243.956 155.197 243.971 155.452L245.187 155.555C245.154 155.151 245.162 154.824 245.212 154.573C245.256 154.348 245.318 154.184 245.397 154.081C245.477 153.978 245.581 153.919 245.709 153.902C245.837 153.886 245.995 153.896 246.183 153.934L250.665 154.82L250.878 153.741L251.147 152.382L250.082 152.171L249.828 153.454ZM7.72559 148.646C7.67523 148.61 7.62439 148.575 7.57031 148.544C6.99729 148.215 6.20848 148.09 5.2041 148.171L5.45117 149.362C5.90697 149.327 6.28167 149.344 6.5752 149.414C6.86589 149.484 7.09375 149.617 7.25879 149.812C7.42028 150.004 7.53617 150.269 7.60645 150.607L7.62012 150.675L3.92383 151.443L4.16406 152.6L10.5674 151.271L10.3271 150.113L8.71777 150.447L8.65918 150.166C8.60927 149.926 8.53568 149.708 8.44336 149.511L9.95312 148.312L9.66895 146.941L7.72559 148.646ZM247.175 144.561C246.734 144.499 246.375 144.588 246.099 144.825C245.822 145.063 245.65 145.425 245.582 145.911C245.543 146.193 245.553 146.442 245.611 146.655C245.672 146.872 245.782 147.049 245.942 147.186C246.076 147.298 246.244 147.376 246.445 147.427L246.431 147.533L245.41 147.468L245.226 149.115L246.176 149.247L246.358 148.625L248.052 148.86C248.656 148.944 249.144 148.807 249.514 148.447C249.886 148.088 250.136 147.495 250.263 146.667L250.414 145.671L249.364 145.438L249.171 146.604C249.102 147.014 248.996 147.315 248.852 147.506C248.71 147.7 248.517 147.78 248.272 147.746L248.259 147.744C248.293 147.65 248.325 147.557 248.352 147.463C248.403 147.285 248.446 147.071 248.48 146.82C248.571 146.17 248.504 145.648 248.279 145.256C248.055 144.864 247.687 144.632 247.175 144.561ZM247.096 145.761C247.441 145.809 247.572 146.135 247.488 146.739C247.466 146.9 247.44 147.055 247.411 147.2C247.389 147.325 247.348 147.46 247.295 147.608C247.152 147.583 247.017 147.522 246.892 147.423C246.756 147.319 246.652 147.175 246.581 146.992C246.51 146.809 246.492 146.591 246.527 146.338C246.557 146.128 246.619 145.973 246.715 145.875C246.814 145.777 246.94 145.739 247.096 145.761ZM7.72363 141.052C7.79219 141.256 7.85334 141.457 7.90625 141.655C7.95629 141.854 7.99657 142.057 8.02734 142.264C8.09567 142.724 8.03667 143.095 7.84961 143.379C7.7454 143.535 7.60232 143.655 7.42285 143.744L6.99219 140.844C6.80275 140.854 6.60446 140.875 6.39746 140.905C5.66714 141.014 5.13703 141.275 4.80762 141.688C4.47836 142.102 4.36209 142.635 4.45898 143.287C4.55814 143.954 4.84278 144.442 5.31152 144.748C5.77977 145.051 6.38744 145.147 7.13477 145.036C7.90232 144.922 8.45957 144.619 8.80664 144.127C9.15077 143.635 9.26489 142.994 9.14746 142.203C9.11969 142.016 9.08053 141.803 9.03027 141.563C8.98002 141.324 8.9068 141.062 8.81152 140.776L7.72363 141.052ZM6.62109 143.922C6.35801 143.928 6.13783 143.882 5.96094 143.783C5.71725 143.646 5.57268 143.425 5.52734 143.12C5.48546 142.838 5.53499 142.607 5.67578 142.428C5.81613 142.245 6.04013 142.131 6.34766 142.085L6.62109 143.922ZM246.527 139.094L248.906 139.286C249.71 139.353 250.089 139.682 250.041 140.271C250.024 140.483 249.941 140.639 249.793 140.741C249.645 140.846 249.44 140.888 249.183 140.867L246.401 140.642L246.306 141.819L249.305 142.062C249.844 142.106 250.272 142.006 250.589 141.764C250.906 141.521 251.085 141.157 251.124 140.67C251.152 140.328 251.095 140.067 250.955 139.887C250.818 139.706 250.597 139.581 250.29 139.513L250.299 139.399L253.046 139.623L253.142 138.445L246.623 137.916L246.527 139.094ZM7.15527 133.878C7.19892 134.07 7.23629 134.242 7.26758 134.394C7.29564 134.542 7.31508 134.683 7.32715 134.816C7.36469 135.23 7.31261 135.537 7.16992 135.733C7.02695 135.927 6.77986 136.04 6.42969 136.071L5.94336 136.115L4.94043 136.206L4.75586 134.166L3.67383 134.264L3.8584 136.304L2.46973 136.431L2.57617 137.604L3.96484 137.477L4.06543 138.58L5.14648 138.482L5.0459 137.379L6.32324 137.264L6.32227 137.263L6.64941 137.233C7.34991 137.17 7.84349 136.947 8.12988 136.565C8.41625 136.183 8.52306 135.596 8.45117 134.803C8.43254 134.597 8.40667 134.405 8.37305 134.228C8.33914 134.047 8.29621 133.862 8.24414 133.674L7.15527 133.878ZM250.129 130.823C248.002 130.773 246.915 131.734 246.868 133.707C246.855 134.265 246.94 134.799 247.126 135.31L248.195 135.134C248.031 134.72 247.953 134.302 247.963 133.881C247.993 132.617 248.721 132.002 250.145 132.036C250.792 132.052 251.288 132.213 251.633 132.521C251.98 132.831 252.148 133.236 252.136 133.736C252.13 133.972 252.08 134.188 251.985 134.387C251.893 134.588 251.764 134.752 251.599 134.879L252.429 135.545C252.677 135.388 252.87 135.152 253.008 134.839C253.149 134.525 253.225 134.164 253.234 133.754C253.256 132.844 252.995 132.134 252.452 131.624C251.912 131.114 251.137 130.847 250.129 130.823ZM2.83887 119.668C2.59106 119.825 2.39801 120.061 2.25977 120.374C2.11866 120.688 2.04295 121.049 2.0332 121.459C2.01164 122.368 2.27247 123.078 2.81543 123.588C3.35574 124.098 4.13031 124.366 5.13867 124.39C7.26576 124.44 8.35328 123.479 8.40039 121.506C8.41367 120.948 8.3271 120.414 8.1416 119.903L7.07324 120.078C7.23785 120.492 7.31471 120.91 7.30469 121.331C7.2746 122.595 6.54797 123.211 5.12402 123.177C4.47597 123.161 3.97927 122.999 3.63477 122.691C3.2877 122.381 3.11994 121.975 3.13184 121.476C3.13749 121.24 3.18744 121.023 3.28223 120.825C3.37425 120.624 3.50407 120.46 3.66992 120.333L2.83887 119.668ZM250.121 116.73L250.221 117.833L249.218 117.924L248.619 117.979C247.919 118.042 247.424 118.264 247.138 118.646C246.851 119.029 246.744 119.617 246.816 120.41C246.835 120.616 246.861 120.808 246.895 120.985C246.928 121.166 246.971 121.35 247.023 121.538L248.113 121.334C248.07 121.143 248.032 120.971 248.001 120.819C247.973 120.67 247.953 120.529 247.94 120.396C247.903 119.982 247.955 119.676 248.098 119.479C248.241 119.286 248.488 119.172 248.838 119.141L249.324 119.097L249.323 119.096L250.327 119.005L250.513 121.047L251.594 120.948L251.408 118.907L252.798 118.781L252.692 117.609L251.302 117.735L251.202 116.632L250.121 116.73ZM5.96289 113.15C5.42412 113.107 4.9958 113.206 4.67871 113.448C4.36178 113.691 4.18406 114.056 4.14453 114.542C4.11681 114.884 4.17257 115.146 4.3125 115.326C4.44951 115.506 4.67126 115.631 4.97754 115.699L4.96777 115.812L2.22168 115.59L2.12598 116.768L8.64551 117.296L8.74121 116.118L6.36719 115.926H6.36816C5.5598 115.86 5.17961 115.531 5.22754 114.94C5.24476 114.729 5.32744 114.572 5.47559 114.471C5.62404 114.366 5.82721 114.325 6.08496 114.346L8.86621 114.571L8.96191 113.394L5.96289 113.15ZM249.957 110.465C249.489 110.161 248.88 110.065 248.133 110.176C247.365 110.29 246.808 110.593 246.461 111.085C246.117 111.577 246.004 112.219 246.121 113.01C246.149 113.196 246.188 113.409 246.238 113.648C246.289 113.888 246.361 114.151 246.456 114.437L247.544 114.16C247.475 113.956 247.414 113.754 247.361 113.557C247.311 113.359 247.271 113.156 247.24 112.949C247.172 112.489 247.231 112.117 247.418 111.834C247.522 111.678 247.665 111.557 247.845 111.468L248.275 114.369C248.465 114.359 248.663 114.337 248.87 114.307C249.6 114.198 250.131 113.937 250.46 113.523C250.789 113.11 250.906 112.577 250.809 111.925C250.709 111.258 250.426 110.771 249.957 110.465ZM248.646 111.29C248.91 111.284 249.13 111.331 249.307 111.43C249.55 111.567 249.695 111.788 249.74 112.093C249.782 112.374 249.732 112.605 249.592 112.784C249.451 112.967 249.228 113.081 248.92 113.127L248.646 111.29ZM8.90918 106.587L7.21582 106.352C6.61129 106.268 6.12369 106.405 5.75391 106.765C5.38122 107.124 5.13161 107.717 5.00488 108.545L4.85352 109.541L5.9043 109.775L6.09668 108.608C6.16537 108.199 6.27217 107.898 6.41602 107.707C6.55748 107.512 6.75043 107.432 6.99512 107.466L7.00781 107.467C6.97296 107.561 6.94291 107.656 6.91602 107.75C6.86494 107.928 6.82189 108.142 6.78711 108.393C6.69683 109.043 6.76411 109.564 6.98828 109.956C7.21261 110.348 7.58125 110.58 8.09375 110.651C8.53414 110.712 8.89243 110.624 9.16895 110.387C9.44548 110.149 9.61795 109.787 9.68555 109.301C9.7247 109.019 9.71459 108.771 9.65625 108.558C9.5954 108.341 9.48519 108.164 9.3252 108.027C9.19133 107.915 9.0232 107.834 8.82129 107.783L8.83594 107.678L9.85742 107.744L10.042 106.098L9.0918 105.966L8.90918 106.587ZM7.97266 107.603C8.11622 107.628 8.25131 107.691 8.37695 107.79C8.5119 107.894 8.61519 108.037 8.68652 108.22C8.75794 108.403 8.77641 108.622 8.74121 108.875C8.712 109.085 8.64951 109.24 8.55371 109.338C8.45502 109.436 8.32733 109.474 8.17188 109.452C7.82646 109.404 7.69629 109.077 7.78027 108.473C7.80266 108.312 7.82841 108.158 7.85742 108.013C7.87982 107.888 7.91902 107.751 7.97266 107.603ZM244.7 103.941L244.94 105.099L246.55 104.764L246.608 105.046C246.658 105.286 246.732 105.503 246.824 105.7L245.314 106.9L245.599 108.271L247.541 106.565C247.592 106.601 247.643 106.636 247.697 106.668C248.27 106.997 249.06 107.122 250.064 107.041L249.816 105.85C249.361 105.885 248.986 105.868 248.692 105.798C248.402 105.728 248.174 105.596 248.009 105.401C247.847 105.209 247.731 104.944 247.661 104.605L247.646 104.536L251.345 103.77L251.104 102.612L244.7 103.941ZM10.082 99.6572C10.1149 100.061 10.1062 100.389 10.0566 100.64C10.0121 100.865 9.94966 101.029 9.87012 101.132C9.79062 101.234 9.68698 101.293 9.55957 101.31C9.43198 101.326 9.27401 101.315 9.08594 101.278L4.60254 100.393L4.37402 101.547L4.12109 102.83L5.18555 103.041L5.43945 101.757L8.90039 102.441C9.59039 102.578 10.1172 102.552 10.4805 102.363C10.8442 102.171 11.0826 101.79 11.1953 101.22C11.246 100.963 11.2789 100.719 11.2949 100.488C11.3109 100.257 11.3117 100.014 11.2969 99.7598L10.082 99.6572ZM247.236 96.7461C246.724 96.4501 246.102 96.4001 245.372 96.5957C244.622 96.7966 244.106 97.1724 243.823 97.7236C243.543 98.2741 243.512 98.9552 243.729 99.7666C243.791 99.9968 243.863 100.231 243.944 100.468C244.026 100.705 244.123 100.93 244.234 101.144L245.269 100.74C245.184 100.558 245.104 100.369 245.03 100.172C244.957 99.9778 244.893 99.7793 244.839 99.5771C244.712 99.103 244.723 98.7075 244.873 98.3906C245.024 98.0765 245.308 97.8631 245.727 97.751C246.106 97.6494 246.424 97.671 246.683 97.8154C246.942 97.9627 247.119 98.2147 247.215 98.5713C247.276 98.7986 247.278 99.0207 247.222 99.2373C247.169 99.456 247.062 99.6527 246.901 99.8281L247.78 100.478C248.072 100.252 248.263 99.9496 248.354 99.5703C248.445 99.1936 248.43 98.7749 248.307 98.3145C248.106 97.5649 247.749 97.0421 247.236 96.7461ZM11.8691 92.9922C11.8789 93.3968 11.8519 93.723 11.7881 93.9707C11.7308 94.1931 11.6586 94.3531 11.5732 94.4512C11.4879 94.5493 11.3813 94.6034 11.2529 94.6123C11.1247 94.6212 10.9678 94.6015 10.7822 94.5537L6.35742 93.4131L6.08301 94.4775L5.73633 95.8193L6.78809 96.0908L7.11426 94.8232L10.5303 95.7041C11.2115 95.8797 11.7388 95.8837 12.1123 95.7158C12.4864 95.5451 12.7465 95.1781 12.8916 94.6152C12.9568 94.3622 13.004 94.121 13.0332 93.8916C13.0624 93.662 13.0764 93.4192 13.0762 93.1641L11.8691 92.9922ZM245.255 89.8936C244.745 89.6761 244.127 89.688 243.401 89.9277C242.678 90.1665 242.175 90.5249 241.893 91.0039C241.61 91.4829 241.573 92.0388 241.781 92.6709C241.99 93.303 242.351 93.7268 242.863 93.9434C243.376 94.1599 243.994 94.1489 244.717 93.9102C245.442 93.6705 245.946 93.312 246.226 92.834C246.508 92.3549 246.545 91.7991 246.336 91.167C246.127 90.535 245.767 90.1101 245.255 89.8936ZM243.78 91.0742C244.169 90.9458 244.493 90.9201 244.751 90.9971C245.01 91.0769 245.184 91.2508 245.272 91.5186C245.362 91.7888 245.325 92.0317 245.164 92.2471C245.003 92.4626 244.727 92.6352 244.338 92.7637C243.952 92.8912 243.628 92.9168 243.367 92.8408C243.109 92.7638 242.935 92.5898 242.846 92.3193C242.757 92.0516 242.794 91.8082 242.954 91.5898C243.118 91.3735 243.394 91.2018 243.78 91.0742ZM12.9688 86.0488C12.2655 85.824 11.6743 85.8242 11.1963 86.0498C10.7184 86.2754 10.3786 86.7026 10.1777 87.3311C9.97243 87.9733 10.0126 88.5358 10.2979 89.0176C10.5841 89.4966 11.0878 89.8509 11.8076 90.0811C12.5469 90.3174 13.1812 90.2917 13.71 90.0029C14.2358 89.7133 14.6199 89.1871 14.8633 88.4258C14.9208 88.2459 14.9805 88.0377 15.041 87.8008C15.1015 87.5639 15.1519 87.2963 15.1924 86.998L14.0947 86.7656C14.0661 86.9793 14.032 87.1868 13.9922 87.3877C13.9496 87.5876 13.8957 87.787 13.832 87.9863C13.6904 88.4293 13.4736 88.7373 13.1807 88.9092C13.0184 89.0031 12.8369 89.048 12.6367 89.0488L13.5293 86.2559C13.3547 86.1818 13.168 86.1125 12.9688 86.0488ZM11.6494 87.0967C11.8559 86.9949 12.1072 86.9913 12.4033 87.0859L11.8379 88.8545C11.5994 88.7438 11.4226 88.6053 11.3076 88.4385C11.1494 88.2079 11.1172 87.9458 11.2109 87.6523C11.2977 87.381 11.4438 87.1957 11.6494 87.0967ZM238.918 84.2451L239.341 85.3154L241.45 84.4824L241.836 85.46C241.84 85.4695 241.844 85.4789 241.848 85.4883L240.073 87.1689L240.577 88.4463L242.503 86.4453C242.626 86.5487 242.757 86.6353 242.901 86.6992C243.37 86.9048 243.906 86.8883 244.509 86.6504C245.066 86.4305 245.429 86.0913 245.599 85.6338C245.768 85.1763 245.731 84.6376 245.486 84.0186L245.046 82.9033H245.045L244.678 81.9707L238.918 84.2451ZM244.5 84.4082C244.598 84.6568 244.602 84.8788 244.511 85.0742C244.419 85.2697 244.239 85.4207 243.972 85.5264C243.707 85.631 243.473 85.6436 243.27 85.5645C243.069 85.4842 242.919 85.3199 242.821 85.0713L242.435 84.0928L244.114 83.4307L244.5 84.4082ZM14.9648 79.457C14.4601 79.2633 14.0211 79.2384 13.6484 79.3818C13.2759 79.5252 13.0022 79.8245 12.8271 80.2803C12.7042 80.6005 12.6842 80.8675 12.7676 81.0801C12.8483 81.2915 13.0262 81.4729 13.3008 81.625L13.2529 81.7471L12.4336 81.5488L12.0547 82.5342L16.3701 84.1904L16.7939 83.0879L14.6396 82.2607C13.8421 81.9545 13.5492 81.5242 13.7617 80.9707C13.8377 80.7728 13.9669 80.6484 14.1484 80.5967C14.3312 80.5423 14.553 80.5651 14.8135 80.665L17.3496 81.6387L17.7734 80.5352L14.9648 79.457ZM15.9766 73.4375L16.708 73.8496L16.6748 73.9248C16.3689 73.8474 16.1094 73.8612 15.8965 73.9658C15.682 74.0668 15.502 74.278 15.3574 74.5986C15.1197 75.1259 15.1259 75.6215 15.376 76.085C15.6273 76.5457 16.1013 76.9329 16.7979 77.2471C17.5 77.5637 18.1048 77.6631 18.6113 77.5439C19.1191 77.4221 19.4912 77.1002 19.7266 76.5781C19.8592 76.284 19.8953 76.0162 19.835 75.7754C19.7746 75.5345 19.6133 75.3292 19.3516 75.1602L19.3906 75.0723L19.9072 75.3057C20.2861 75.4765 20.5351 75.6893 20.6533 75.9434C20.7741 76.1987 20.7563 76.5149 20.5996 76.8906L20.0293 78.2598L20.9854 78.6426L21.501 77.3926C21.8222 76.6096 21.8843 75.961 21.6855 75.4473C21.4893 74.9348 21.0154 74.51 20.2656 74.1719L16.4258 72.4404L15.9766 73.4375ZM17.0635 74.2725C17.3137 74.2195 17.6429 74.2849 18.0508 74.4688C18.4589 74.6528 18.7288 74.8482 18.8594 75.0537C18.9908 75.2565 18.987 75.5113 18.8486 75.8184C18.722 76.0993 18.5274 76.2689 18.2656 76.3262C18.0051 76.3807 17.6816 76.3208 17.2949 76.1465C16.9213 75.978 16.6654 75.7736 16.5283 75.5332C16.3886 75.2917 16.3809 75.0346 16.5039 74.7617C16.6282 74.4862 16.8145 74.3228 17.0635 74.2725ZM233.308 71.9492L233.864 72.9922L235.964 71.8711C236.679 71.4892 237.177 71.5599 237.456 72.083C237.556 72.2702 237.572 72.4466 237.502 72.6123C237.434 72.7806 237.285 72.9251 237.057 73.0469L234.595 74.3613L235.151 75.4043L237.806 73.9873C238.283 73.7327 238.589 73.4175 238.725 73.042C238.86 72.6665 238.813 72.2629 238.583 71.832C238.422 71.5296 238.233 71.3408 238.018 71.2646C237.805 71.1871 237.551 71.2016 237.256 71.3096L237.202 71.21L239.634 69.9121L239.077 68.8701L233.308 71.9492ZM21.7344 67.1045C21.0797 66.7631 20.4978 66.6629 19.9883 66.8037C19.4788 66.9445 19.0718 67.3075 18.7666 67.8926C18.4548 68.4904 18.3978 69.0509 18.5967 69.5742C18.7971 70.0951 19.2332 70.5304 19.9033 70.8799C20.5912 71.2386 21.22 71.3211 21.79 71.127C22.3576 70.9313 22.8266 70.4791 23.1963 69.7705C23.2837 69.603 23.3775 69.4068 23.4775 69.1836C23.5775 68.9605 23.673 68.7057 23.7637 68.4189L22.7217 68.0029C22.6571 68.2084 22.5881 68.4066 22.5146 68.5977C22.4386 68.7875 22.3517 68.9756 22.2549 69.1611C22.0398 69.5735 21.7731 69.8396 21.4551 69.959C21.2792 70.0238 21.0929 70.0373 20.8955 70.0039L22.252 67.4043C22.0925 67.3015 21.9199 67.2013 21.7344 67.1045ZM20.2559 67.9121C20.4767 67.847 20.7252 67.8864 21.001 68.0303L20.1416 69.6758C19.9257 69.5261 19.7752 69.3597 19.6904 69.1758C19.5739 68.9215 19.587 68.658 19.7295 68.3848C19.8612 68.1323 20.0364 67.9747 20.2559 67.9121ZM233.697 64.3008C233.122 64.1612 232.511 64.2874 231.866 64.6807C231.203 65.0846 230.814 65.5917 230.698 66.2002C230.585 66.8071 230.746 67.4694 231.184 68.1865C231.308 68.39 231.443 68.5935 231.588 68.7979C231.733 69.0022 231.889 69.1915 232.056 69.3652L232.935 68.6875C232.802 68.5369 232.672 68.3771 232.546 68.209C232.421 68.0434 232.304 67.8711 232.195 67.6924C231.94 67.273 231.839 66.8902 231.894 66.5439C231.949 66.2001 232.162 65.9149 232.532 65.6895C232.867 65.4853 233.179 65.4166 233.468 65.4824C233.758 65.5508 233.999 65.7425 234.191 66.0576C234.314 66.2585 234.379 66.4708 234.386 66.6943C234.397 66.9189 234.35 67.1381 234.245 67.3516L235.271 67.7275C235.487 67.429 235.585 67.0849 235.565 66.6953C235.547 66.3081 235.414 65.9109 235.166 65.5039C234.762 64.8413 234.272 64.4404 233.697 64.3008ZM229.843 58.252C229.289 58.1862 228.701 58.3675 228.079 58.7969C227.441 59.238 227.074 59.7565 226.979 60.3516C226.888 60.9449 227.069 61.5708 227.523 62.2285C227.631 62.3839 227.76 62.5574 227.911 62.75C228.062 62.9426 228.243 63.1462 228.454 63.3604L229.309 62.6328C229.157 62.4798 229.014 62.326 228.879 62.1719C228.747 62.016 228.62 61.8519 228.501 61.6797C228.237 61.2972 228.126 60.9374 228.169 60.6006C228.194 60.4146 228.268 60.2422 228.39 60.083L230.057 62.4971C230.222 62.404 230.391 62.2977 230.563 62.1787C231.171 61.7591 231.531 61.2916 231.645 60.7754C231.758 60.2591 231.627 59.7294 231.252 59.1865C230.869 58.6316 230.399 58.3202 229.843 58.252ZM229.686 59.4043C229.965 59.4199 230.192 59.5551 230.367 59.8086C230.529 60.0429 230.586 60.2719 230.539 60.4951C230.493 60.7207 230.343 60.922 230.087 61.0986L229.031 59.5703C229.265 59.4488 229.483 59.3934 229.686 59.4043ZM27.5967 54.46C27.0791 54.1097 26.5975 53.9872 26.1533 54.0938C25.7068 54.1987 25.2936 54.532 24.9141 55.0928C24.6713 55.4515 24.5203 55.8496 24.46 56.2861C24.3997 56.7226 24.4417 57.1193 24.5859 57.4766L25.6084 57.3584C25.5298 57.0701 25.5092 56.7765 25.5459 56.4785C25.5843 56.1781 25.6721 55.9253 25.8105 55.7207C25.9686 55.4872 26.1453 55.3536 26.3398 55.3203C26.5336 55.283 26.747 55.3439 26.9805 55.502C27.4451 55.8164 27.7708 56.3074 27.958 56.9746C28.1427 57.6402 28.1812 58.4854 28.0732 59.5107L29.0557 60.1758L30.085 58.6553L30.084 58.6543L31.3975 56.7168L30.5527 56.1445L29.2393 58.083L29.1025 57.9912C29.086 57.1341 28.9528 56.413 28.7021 55.8291C28.4491 55.2438 28.0804 54.7874 27.5967 54.46ZM225.149 52.5742L226.615 54.4561L223.105 54.165L222.304 54.79L224.641 57.79L225.441 57.165L223.958 55.2607L227.432 55.5049L228.233 54.8809L225.951 51.9502L225.149 52.5742ZM33.1963 49.458C31.4867 48.1527 30.1904 48.0789 29.3066 49.2363C28.4228 50.3938 28.8352 51.6252 30.5449 52.9307C32.2084 54.2008 33.4824 54.2571 34.3662 53.0996C35.25 51.9421 34.8598 50.7282 33.1963 49.458ZM30.1797 49.9033C30.5819 49.3766 31.3463 49.5435 32.4736 50.4043C33.5549 51.2299 33.8944 51.9058 33.4922 52.4326C33.0829 52.9683 32.3379 52.8235 31.2568 51.998C30.1296 51.1373 29.7707 50.4393 30.1797 49.9033ZM222.31 46.167C221.567 46.1565 220.816 46.4835 220.057 47.1475C218.455 48.5485 218.304 49.9921 219.604 51.4775C219.971 51.8976 220.396 52.2329 220.878 52.4834L221.546 51.6318C221.145 51.4383 220.806 51.1832 220.528 50.8662C219.696 49.9145 219.816 48.9691 220.888 48.0312C221.375 47.6047 221.85 47.3882 222.312 47.3818C222.777 47.3759 223.176 47.5612 223.505 47.9375C223.66 48.1147 223.77 48.3083 223.834 48.5186C223.902 48.729 223.918 48.9371 223.882 49.1426L224.943 49.0713C225.02 48.7882 225.003 48.4845 224.893 48.1602C224.785 47.8336 224.596 47.5155 224.326 47.207C223.727 46.5223 223.055 46.1755 222.31 46.167ZM31.6611 50.5127C31.4805 50.51 31.3373 50.5783 31.2314 50.7168C31.1256 50.8554 31.0972 51.0119 31.1475 51.1855C31.1995 51.3569 31.3219 51.5157 31.5137 51.6621C31.7053 51.8084 31.8905 51.8845 32.0693 51.8896C32.2501 51.8924 32.3942 51.8242 32.5 51.6855C32.6058 51.5469 32.6332 51.3905 32.583 51.2168C32.5327 51.0432 32.4114 50.8827 32.2197 50.7363C32.0281 50.5901 31.8418 50.5154 31.6611 50.5127ZM35.1953 43.0059C34.7397 43.0592 34.2907 43.3425 33.8496 43.8564C33.5677 44.185 33.3714 44.5626 33.2617 44.9893C33.1521 45.4161 33.1494 45.816 33.252 46.1875L34.2812 46.1855C34.2361 45.8902 34.2489 45.5965 34.3193 45.3047C34.3917 45.0106 34.5081 44.7695 34.6689 44.582C34.8525 44.3682 35.0432 44.256 35.2402 44.2451C35.4369 44.2302 35.6426 44.3145 35.8564 44.498C36.282 44.8634 36.5492 45.3882 36.6592 46.0723C36.7669 46.7545 36.7094 47.5991 36.4854 48.6055L37.3848 49.3779L37.5547 49.1787L37.5557 49.1797L40.1055 46.208L39.3311 45.5439L37.8057 47.3203L37.6807 47.2129C37.7619 46.3594 37.7108 45.6282 37.5283 45.0195C37.3437 44.4092 37.0301 43.9136 36.5869 43.5332C36.1128 43.1263 35.6486 42.9508 35.1953 43.0059ZM40.0771 37.3838C39.2342 38.3475 38.815 39.2661 38.8213 40.1396C38.8276 41.0133 39.2545 41.8574 40.1006 42.6719L40.3984 42.959C40.8969 43.4388 41.4201 43.6762 41.9668 43.6699C42.5134 43.6635 43.0234 43.4139 43.4971 42.9219C43.9809 42.4193 44.225 41.9079 44.2295 41.3877C44.236 40.8654 44.0069 40.3802 43.542 39.9326C43.0897 39.4973 42.6382 39.2666 42.1875 39.2402C41.7368 39.2139 41.3242 39.3957 40.9492 39.7852C40.7134 40.0302 40.5775 40.2992 40.542 40.5918C40.5065 40.8802 40.5779 41.1641 40.7559 41.4443L40.6768 41.5254C39.6723 40.5531 39.756 39.4058 40.9287 38.083L40.0771 37.3838ZM42.0605 40.5352C42.2823 40.5227 42.4951 40.614 42.6982 40.8096C42.9139 41.0172 43.0229 41.2392 43.0254 41.4756C43.0277 41.7077 42.9234 41.9336 42.7119 42.1533C42.5002 42.3732 42.2788 42.4921 42.0488 42.5088C41.819 42.5213 41.6033 42.4307 41.4023 42.2373C41.1889 42.0318 41.0834 41.8106 41.085 41.5742C41.0866 41.3378 41.1963 41.1061 41.4141 40.8799C41.6235 40.6624 41.839 40.5477 42.0605 40.5352ZM209.294 35.5693C209.03 35.531 208.772 35.5589 208.521 35.6514C208.271 35.7439 208.057 35.8984 207.882 36.1152C207.706 36.3321 207.599 36.5725 207.561 36.8369C207.522 37.1012 207.549 37.3588 207.642 37.6094C207.734 37.8601 207.89 38.0734 208.106 38.249C208.323 38.4245 208.564 38.532 208.828 38.5703C209.092 38.6086 209.35 38.5816 209.601 38.4893C209.851 38.3968 210.065 38.2413 210.24 38.0244C210.416 37.8076 210.523 37.5671 210.562 37.3027C210.6 37.0383 210.572 36.7809 210.479 36.5303C210.387 36.2796 210.232 36.0662 210.016 35.8906C209.799 35.7151 209.558 35.6077 209.294 35.5693ZM51.3916 29.958C51.1276 29.9989 50.888 30.1085 50.6729 30.2861C50.4578 30.4637 50.305 30.6783 50.2148 30.9297C50.1248 31.1811 50.0999 31.4392 50.1406 31.7031C50.1815 31.9672 50.2911 32.2077 50.4688 32.4229C50.6463 32.6378 50.861 32.7898 51.1123 32.8799C51.3638 32.97 51.6217 32.9949 51.8857 32.9541C52.1498 32.9132 52.3893 32.8036 52.6045 32.626C52.8197 32.4483 52.9724 32.234 53.0625 31.9824C53.1526 31.7309 53.1776 31.473 53.1367 31.209C53.0959 30.9449 52.9863 30.7054 52.8086 30.4902C52.6309 30.2751 52.4165 30.1223 52.165 30.0322C51.9135 29.9422 51.6556 29.9172 51.3916 29.958ZM192.28 27.1797L193.277 27.8145L194.518 25.8633L194.516 25.8682C194.974 25.147 195.454 24.9454 195.954 25.2637C196.133 25.3775 196.23 25.5285 196.244 25.7168C196.261 25.9067 196.195 26.12 196.045 26.3555L194.588 28.6475L195.585 29.2812L197.199 26.7422C197.489 26.2861 197.601 25.8614 197.534 25.4678C197.468 25.0741 197.228 24.7464 196.816 24.4844C196.527 24.3003 196.27 24.2281 196.045 24.2676C195.822 24.3047 195.608 24.4426 195.404 24.6816L195.293 24.6104L195.651 23.8467L194.761 23.2803L192.28 27.1797ZM59.4443 22.0986L60.0215 22.9873L61.502 22.0254L64.2979 26.3301L65.2627 25.7031L62.4668 21.3984L63.9492 20.4375L63.3721 19.5488L59.4443 22.0986ZM190.447 20.4961C189.866 20.1716 189.314 20.1033 188.79 20.29C188.268 20.4743 187.82 20.9001 187.447 21.5674C187.076 22.2322 186.948 22.8369 187.063 23.3809C187.179 23.9248 187.527 24.359 188.108 24.6836C188.69 25.0082 189.243 25.0775 189.767 24.8906C190.29 24.7037 190.738 24.278 191.109 23.6133C191.482 22.946 191.609 22.3412 191.492 21.7998C191.377 21.2558 191.028 20.8207 190.447 20.4961ZM189.164 21.4434C189.409 21.3271 189.654 21.3374 189.9 21.4746C190.149 21.6135 190.288 21.817 190.314 22.085C190.341 22.353 190.255 22.6666 190.055 23.0244C189.856 23.3795 189.635 23.617 189.392 23.7373C189.149 23.855 188.904 23.8448 188.655 23.7061C188.409 23.5686 188.272 23.3649 188.242 23.0957C188.217 22.8252 188.303 22.5116 188.501 22.1562C188.701 21.7986 188.922 21.5612 189.164 21.4434ZM69.9492 18.2578C69.4445 18.1008 68.9051 18.1865 68.332 18.5137C67.7466 18.8481 67.3958 19.289 67.2803 19.8369C67.1673 20.3835 67.2981 20.9853 67.6729 21.6416C68.0577 22.3155 68.5432 22.7244 69.1279 22.8691C69.7112 23.0113 70.3499 22.8846 71.0439 22.4883C71.208 22.3946 71.3928 22.2811 71.5977 22.1475C71.8024 22.0138 72.0205 21.8506 72.252 21.6582L71.5996 20.7451C71.4342 20.8831 71.2686 21.0128 71.1035 21.1338C70.937 21.2523 70.7627 21.3631 70.5811 21.4668C70.1773 21.6973 69.8095 21.7774 69.4775 21.7061C69.2942 21.6655 69.1297 21.5756 68.9814 21.4404L71.5283 19.9873C71.4498 19.8146 71.3587 19.6368 71.2549 19.4551C70.8889 18.8142 70.4538 18.4149 69.9492 18.2578ZM182.159 17.3877L183.461 18.0195L182.394 20.2168L180.856 19.4697L180.38 20.4502L181.996 21.2354L182.977 21.7119L184.208 22.3096L184.685 21.3291L183.452 20.7305L184.882 17.7891L184.881 17.7881L184.996 17.5537L182.635 16.4072L182.159 17.3877ZM68.876 19.4482C69.1234 19.307 69.3567 19.2689 69.5752 19.335C69.796 19.3996 69.9836 19.5671 70.1377 19.8369L68.5244 20.7578C68.4236 20.5151 68.3879 20.2934 68.416 20.0928C68.4554 19.8159 68.6085 19.601 68.876 19.4482ZM76.4014 14.5352C76.1752 14.6153 75.9626 14.6965 75.7637 14.7793C75.5672 14.8608 75.3801 14.9461 75.2031 15.0342C74.4408 15.4135 73.9271 15.8059 73.6611 16.2109C73.394 16.6133 73.3706 17.0366 73.5918 17.4814C73.7304 17.7599 73.91 17.9489 74.1309 18.0469C74.353 18.1409 74.6225 18.1591 74.9385 18.1025L76.4795 17.8232C76.578 17.8066 76.6558 17.8063 76.7129 17.8232C76.77 17.8402 76.8146 17.88 76.8457 17.9424C76.8988 18.0491 76.8578 18.1665 76.7236 18.2949C76.5882 18.4207 76.344 18.572 75.9902 18.748C75.8627 18.8115 75.6814 18.8889 75.4473 18.9795C75.2132 19.07 74.9217 19.1754 74.5732 19.2969L74.9512 20.3701C75.1554 20.3172 75.3837 20.2399 75.6348 20.1377C75.8897 20.0368 76.1745 19.9076 76.4893 19.751C77.2048 19.3949 77.6842 19.0236 77.9268 18.6367C78.1679 18.2472 78.1788 17.8323 77.96 17.3926C77.8136 17.0986 77.6064 16.9046 77.3389 16.8105C77.0726 16.7126 76.7373 16.7041 76.333 16.7852L75.0146 17.042C74.9223 17.0587 74.8479 17.0603 74.792 17.0459C74.7374 17.0276 74.6945 16.985 74.6621 16.9199C74.6105 16.8159 74.6642 16.6963 74.8242 16.5615C74.9857 16.4228 75.2713 16.2521 75.6797 16.0488C75.8019 15.988 75.9531 15.9171 76.1338 15.8369C76.3146 15.7567 76.5292 15.6683 76.7764 15.5713L76.4014 14.5352ZM176.615 13.623L175.594 13.1973L175.176 14.1992L176.197 14.625L175.704 15.8086L175.579 16.1104C175.308 16.7595 175.274 17.2999 175.479 17.7314C175.683 18.163 176.153 18.5323 176.888 18.8389C177.078 18.9183 177.261 18.9848 177.434 19.0381C177.609 19.0924 177.792 19.14 177.982 19.1816L178.311 18.123C178.121 18.0723 177.952 18.0256 177.803 17.9824C177.658 17.9377 177.523 17.8894 177.399 17.8379C177.016 17.678 176.771 17.4893 176.663 17.2715C176.558 17.0546 176.574 16.7836 176.709 16.459L176.791 16.2617L177.284 15.0781L179.176 15.8672L179.594 14.8652L177.701 14.0762L178.239 12.7881L177.152 12.335L176.615 13.623ZM185.352 15.3564C185.15 15.2586 184.956 15.2421 184.77 15.3066C184.583 15.3712 184.441 15.5038 184.343 15.7051C184.245 15.9064 184.228 16.1007 184.293 16.2871C184.358 16.4735 184.491 16.6151 184.692 16.7129C184.894 16.8106 185.087 16.8271 185.273 16.7627C185.46 16.6982 185.602 16.5656 185.7 16.3643C185.798 16.1629 185.815 15.9687 185.75 15.7822C185.685 15.596 185.553 15.4542 185.352 15.3564ZM79.4814 11.7578L80.0303 13.04L79.0127 13.4766L79.4395 14.4746L80.458 14.0381L80.8545 14.9639V14.9648L81.0908 15.5176C81.3677 16.1642 81.7327 16.5654 82.1846 16.7197C82.6363 16.8739 83.2281 16.7938 83.96 16.4805C84.1497 16.3992 84.3246 16.3155 84.4834 16.2285C84.6449 16.1404 84.8071 16.0422 84.9697 15.9346L84.4385 14.9619C84.2699 15.0625 84.118 15.1509 83.9834 15.2275C83.8503 15.3004 83.7225 15.3634 83.5996 15.416C83.2176 15.5796 82.9109 15.6236 82.6797 15.5488C82.4511 15.4728 82.2674 15.2735 82.1289 14.9502L81.9365 14.501L81.54 13.5742L83.4238 12.7686L82.9961 11.7705L81.1123 12.5771L80.5635 11.2949L79.4814 11.7578ZM171.567 11.4609C170.835 11.2036 170.202 11.2029 169.668 11.459C169.134 11.7151 168.743 12.2002 168.492 12.9131C168.235 13.6453 168.253 14.2837 168.549 14.8281C168.845 15.3698 169.39 15.7801 170.183 16.0586C170.408 16.1376 170.641 16.2099 170.883 16.2764C171.124 16.3428 171.365 16.3902 171.604 16.4189L171.854 15.3379C171.657 15.3053 171.455 15.264 171.251 15.2139C171.05 15.1647 170.851 15.1054 170.653 15.0361C170.19 14.8733 169.87 14.6403 169.692 14.3379C169.518 14.0363 169.502 13.681 169.646 13.2725C169.776 12.9024 169.973 12.6514 170.238 12.5195C170.506 12.3887 170.815 12.3844 171.163 12.5068C171.385 12.5849 171.57 12.7082 171.717 12.877C171.868 13.0439 171.97 13.2431 172.024 13.4746L173.056 13.1162C173.034 12.7484 172.893 12.4199 172.631 12.1309C172.372 11.8426 172.017 11.619 171.567 11.4609ZM86.2217 10.6641L86.5928 11.6895L87.9541 11.1963L88.7852 13.4922L87.1787 14.0742L87.5498 15.0996L89.1562 14.5166L89.1572 14.5176L90.2637 14.1162L90.2627 14.1152L91.5508 13.6504L91.1797 12.625L89.8926 13.0908L89.0137 10.6641L88.6904 9.77051L86.2217 10.6641ZM161.712 11.5C161.566 12.0053 161.569 12.4312 161.72 12.7773C161.872 13.1207 162.159 13.3539 162.581 13.4756C162.874 13.5601 163.145 13.5502 163.393 13.4463C163.64 13.3423 163.842 13.1494 163.999 12.8682L164.128 12.9053L163.934 13.8203L165.617 14.2607L165.883 13.3389L165.298 13.0703L165.525 12.2822L165.524 12.2812L166.286 9.64355L165.151 9.31543L164.543 11.4229C164.404 11.906 164.236 12.2312 164.039 12.3984C163.846 12.5634 163.618 12.6076 163.353 12.5312C163.149 12.4725 163.008 12.358 162.93 12.1875C162.855 12.0148 162.854 11.801 162.928 11.5469L163.693 8.89453L162.558 8.56738L161.712 11.5ZM102.347 6.10645L102.467 6.9375L102.388 6.95703C102.262 6.66718 102.092 6.46997 101.879 6.36523C101.668 6.25712 101.392 6.24401 101.05 6.3252C100.487 6.45888 100.098 6.766 99.8838 7.24707C99.6723 7.72756 99.6544 8.34018 99.8311 9.08398C100.009 9.8333 100.3 10.3719 100.704 10.7002C101.111 11.0279 101.592 11.1255 102.149 10.9932C102.463 10.9186 102.698 10.7838 102.852 10.5889C103.005 10.394 103.069 10.1414 103.043 9.83105L103.136 9.80859L103.268 10.3604C103.364 10.7646 103.347 11.0911 103.218 11.3398C103.089 11.5914 102.829 11.7706 102.436 11.876L101.003 12.2607L101.283 13.252L102.588 12.8965C103.404 12.6727 103.956 12.3257 104.241 11.8545C104.527 11.3862 104.575 10.7514 104.385 9.95117L103.411 5.85352L102.347 6.10645ZM96.2178 7.89258C95.8767 7.68514 95.4726 7.6513 95.0049 7.79102C94.6763 7.8892 94.4524 8.03561 94.335 8.23145C94.2167 8.42455 94.1812 8.67681 94.2285 8.9873L94.1025 9.02441L93.7598 8.25391L92.748 8.55566L94.0713 12.9844L95.2041 12.6465L94.542 10.4326L94.5439 10.4355C94.2994 9.61704 94.4605 9.12299 95.0283 8.95312C95.2316 8.89239 95.4097 8.91797 95.5615 9.03027C95.7161 9.14177 95.8332 9.33141 95.9131 9.59863L96.6914 12.2012L97.8232 11.8633L96.9619 8.98047C96.8071 8.46251 96.5589 8.10008 96.2178 7.89258ZM158.277 8.21094L158.168 8.18652C158.186 7.8718 158.125 7.62123 157.985 7.43457C157.849 7.24578 157.618 7.11387 157.289 7.03906C156.725 6.91072 156.241 7.01532 155.836 7.35254C155.434 7.69041 155.148 8.23212 154.979 8.97754C154.808 9.72849 154.831 10.3408 155.048 10.8135C155.268 11.2867 155.658 11.5868 156.216 11.7139C156.53 11.7855 156.8 11.7672 157.024 11.6602C157.248 11.5531 157.418 11.3545 157.531 11.0645L157.63 11.0869L157.595 11.9824L158.591 12.165L160.042 5.78711L158.89 5.52539L158.277 8.21094ZM156.605 8.37207C156.814 8.18737 157.065 8.12806 157.356 8.19434C157.651 8.26141 157.848 8.41235 157.947 8.64648C158.049 8.88126 158.049 9.2169 157.95 9.65332C157.851 10.0898 157.714 10.3928 157.538 10.5615C157.365 10.7307 157.115 10.7779 156.786 10.7031C156.486 10.6348 156.281 10.4776 156.173 10.2324C156.068 9.98788 156.062 9.65876 156.156 9.24512C156.247 8.84546 156.397 8.55421 156.605 8.37207ZM150.8 5.61719C150.144 5.50691 149.6 5.62764 149.17 5.97949C148.74 6.32863 148.461 6.88004 148.334 7.63379C148.208 8.38461 148.29 8.99723 148.582 9.4707C148.874 9.94424 149.348 10.2363 150.005 10.3467C150.661 10.4571 151.205 10.3364 151.636 9.98438C152.066 9.63236 152.344 9.08084 152.471 8.33008C152.597 7.57629 152.515 6.9638 152.223 6.49316C151.931 6.01963 151.456 5.72758 150.8 5.61719ZM101.62 7.33203C101.914 7.26216 102.158 7.311 102.35 7.47754C102.52 7.62278 102.655 7.87106 102.756 8.22266L102.797 8.37891C102.9 8.81444 102.91 9.1471 102.827 9.37598C102.747 9.60406 102.543 9.75705 102.215 9.83496C101.915 9.90617 101.662 9.85592 101.457 9.68359C101.255 9.51063 101.105 9.21743 101.007 8.80469C100.912 8.40592 100.918 8.07864 101.024 7.82324C101.13 7.56506 101.329 7.40125 101.62 7.33203ZM87.9453 7.99512C87.7666 7.91144 87.5718 7.90816 87.3613 7.98438C87.1509 8.06057 87.0036 8.18759 86.9199 8.36621C86.8362 8.54492 86.833 8.73974 86.9092 8.9502C86.9854 9.16055 87.1124 9.30793 87.291 9.3916C87.4697 9.47528 87.6646 9.47856 87.875 9.40234C88.0853 9.32614 88.2327 9.19909 88.3164 9.02051C88.4001 8.84181 88.4034 8.64697 88.3271 8.43652C88.251 8.22617 88.1239 8.07881 87.9453 7.99512ZM141.524 5.34863L142.32 5.43555L142.037 8.01953L141.066 7.91309L140.956 8.91895L144.172 9.27246L144.282 8.2666L143.207 8.14844L143.314 7.17773C143.371 6.6663 143.485 6.2794 143.657 6.01758C143.829 5.75597 144.058 5.6406 144.344 5.67188C144.563 5.69601 144.717 5.77308 144.802 5.90234C144.89 6.03194 144.919 6.23251 144.889 6.50391L146.059 6.63281C146.125 6.02891 146.059 5.55349 145.86 5.20703C145.664 4.86092 145.348 4.66418 144.912 4.61621C144.175 4.53522 143.743 4.86608 143.614 5.60938L143.45 5.59082L143.429 4.54102L143.367 4.53418H143.368L143.164 4.51172L142.432 4.43066H142.431L141.635 4.34375L141.524 5.34863ZM149.91 6.93945C150.102 6.74777 150.336 6.67498 150.614 6.72168C150.895 6.76892 151.094 6.91479 151.209 7.1582C151.324 7.40159 151.347 7.72581 151.279 8.12988C151.212 8.53099 151.084 8.8293 150.895 9.02441C150.706 9.21654 150.471 9.28941 150.19 9.24219C149.912 9.19541 149.715 9.04952 149.597 8.80566C149.482 8.55948 149.458 8.23606 149.525 7.83496C149.593 7.43077 149.722 7.13177 149.91 6.93945ZM113.785 4.32422L113.915 5.40625L115.352 5.23438L115.642 7.6582L113.944 7.86133L114.074 8.94434L115.771 8.74023L115.771 8.74121L116.94 8.60156L116.939 8.60059L118.3 8.43848L118.17 7.35645L116.811 7.51855L116.492 4.85547L116.392 4.01172L113.785 4.32422ZM134.507 8.37012L135.657 8.42969L135.749 6.65723L136.494 6.69727C137.269 6.73789 137.879 6.56684 138.324 6.18555C138.769 5.80141 139.011 5.24102 139.05 4.50391C139.085 3.83914 138.9 3.31378 138.495 2.92871C138.09 2.54077 137.501 2.32677 136.726 2.28613L135.894 2.24219H135.893L134.831 2.18652L134.507 8.37012ZM122.99 3.51367C122.648 3.53488 122.397 3.6278 122.238 3.79199C122.079 3.95329 121.988 4.19077 121.964 4.50391L121.832 4.51172L121.673 3.68262L120.619 3.74805L120.905 8.36133L122.085 8.28809L121.94 5.96875C121.892 5.12728 122.162 4.68795 122.75 4.65137C122.962 4.63824 123.129 4.7038 123.252 4.84766C123.377 4.99133 123.449 5.20293 123.466 5.48145L123.634 8.19238L124.813 8.11914L124.627 5.11621C124.593 4.57672 124.435 4.16706 124.149 3.8877C123.864 3.60833 123.478 3.48351 122.99 3.51367ZM136.67 3.34375C137.05 3.36368 137.338 3.47537 137.534 3.67773C137.733 3.88028 137.823 4.15854 137.805 4.5127C137.785 4.8871 137.665 5.17307 137.445 5.37109C137.228 5.56923 136.93 5.65858 136.55 5.63867L135.805 5.59961L135.925 3.30469L136.67 3.34375ZM115.502 1.9707C115.28 1.99728 115.107 2.08904 114.985 2.24414C114.864 2.39914 114.816 2.58759 114.843 2.80957C114.869 3.03182 114.96 3.20419 115.115 3.32617C115.27 3.44799 115.459 3.49521 115.681 3.46875C115.903 3.44218 116.075 3.3514 116.197 3.19629C116.319 3.04127 116.367 2.85293 116.341 2.63086C116.314 2.4087 116.223 2.23623 116.068 2.11426C115.913 1.99228 115.724 1.94413 115.502 1.9707Z" fill="#FF00A1"/>
</g>
<defs>
<radialGradient id="paint0_radial_49_490" cx="0" cy="0" r="1" gradientUnits="userSpaceOnUse" gradientTransform="translate(50 273) rotate(-61.2072) scale(488.95 348.591)">
<stop/>
<stop offset="1" stop-color="#020037"/>
</radialGradient>
<linearGradient id="paint1_linear_49_490" x1="173.589" y1="50.0363" x2="159.075" y2="75.1763" gradientUnits="userSpaceOnUse">
<stop stop-color="#FF00A2"/>
<stop offset="1" stop-color="#FF00A1"/>
</linearGradient>
<linearGradient id="paint2_linear_49_490" x1="98.1699" y1="146.667" x2="68.4221" y2="198.192" gradientUnits="userSpaceOnUse">
<stop stop-color="#FF00A2"/>
<stop offset="1"/>
</linearGradient>
<linearGradient id="paint3_linear_49_490" x1="129.294" y1="162.233" x2="98.4019" y2="215.74" gradientUnits="userSpaceOnUse">
<stop stop-color="#FF00A2"/>
<stop offset="1"/>
</linearGradient>
<clipPath id="clip0_49_490">
<path d="M0 128C0 57.3076 57.3076 0 128 0C198.692 0 256 57.3076 256 128C256 198.692 198.692 256 128 256C57.3076 256 0 198.692 0 128Z" fill="white"/>
</clipPath>
</defs>
</svg>
