<svg width="256" height="256" viewBox="0 0 256 256" fill="none" xmlns="http://www.w3.org/2000/svg">
<g clip-path="url(#clip0_49_734)">
<path d="M0 128C0 57.3076 57.3076 0 128 0C198.692 0 256 57.3076 256 128C256 198.692 198.692 256 128 256C57.3076 256 0 198.692 0 128Z" fill="url(#paint0_radial_49_734)"/>
<path d="M156.745 73.8312C156.431 74.3204 156.331 74.906 156.482 75.4673C156.632 76.0281 157.02 76.5186 157.547 76.8229C158.074 77.1272 158.693 77.2181 159.253 77.0675C159.815 76.9174 160.272 76.5382 160.538 76.0213C160.766 75.5809 160.99 75.1474 161.21 74.7206C165.197 66.9942 169.212 59.2195 173.204 51.4825C173.426 51.0539 173.651 50.6182 173.868 50.1969C173.963 50.012 173.98 49.7918 173.92 49.5876C173.86 49.3833 173.728 49.2117 173.548 49.1078C173.368 49.0038 173.153 48.9752 172.946 49.0254C172.74 49.0757 172.558 49.2007 172.445 49.3756C172.189 49.7741 171.924 50.187 171.663 50.5928C166.959 57.9191 162.234 65.2832 157.536 72.599C157.276 73.0029 157.013 73.4137 156.745 73.8312Z" fill="url(#paint1_linear_49_734)"/>
<path d="M100.067 147.762C100.452 147.161 100.573 146.441 100.388 145.751C100.204 145.062 99.7281 144.461 99.082 144.088C98.4358 143.714 97.6767 143.603 96.9881 143.788C96.2985 143.973 95.7358 144.438 95.4074 145.072C94.9504 145.953 94.4934 146.834 94.0364 147.716C85.811 163.577 77.5855 179.437 69.36 195.298C68.9031 196.18 68.4461 197.061 67.9891 197.942C68.5238 197.106 69.0584 196.269 69.593 195.433C79.2162 180.379 88.8395 165.325 98.4627 150.271C98.9973 149.435 99.532 148.598 100.067 147.762Z" fill="url(#paint2_linear_49_734)"/>
<path d="M131.19 163.328C131.574 162.726 131.695 162.006 131.51 161.316C131.326 160.628 130.851 160.026 130.206 159.654C129.561 159.281 128.803 159.171 128.114 159.356C127.424 159.54 126.861 160.005 126.531 160.638C126.055 161.553 125.579 162.467 125.103 163.381C116.534 179.836 107.966 196.292 99.397 212.747C98.921 213.661 98.4449 214.576 97.9689 215.49C98.5226 214.621 99.0763 213.751 99.63 212.882C109.596 197.233 119.563 181.585 129.529 165.936C130.083 165.067 130.637 164.198 131.19 163.328Z" fill="url(#paint3_linear_49_734)"/>
<path fill-rule="evenodd" clip-rule="evenodd" d="M131.397 183.007C133.626 188.617 133.413 190.26 133.413 190.26L129.129 197.681L127.692 191.439C127.692 191.439 123.463 173.69 107.081 164.232C90.6992 154.774 73.2142 159.986 73.2142 159.986L67.0901 161.863L71.3746 154.442C73.7441 153.696 75.6096 153.039 78.6275 152.625C85.6297 151.6 98.2303 151.003 110.597 158.143C122.928 165.262 128.729 176.451 131.397 183.007Z" fill="#FF00A2"/>
<path fill-rule="evenodd" clip-rule="evenodd" d="M73.8281 150.192L79.9523 148.315C79.9523 148.315 97.4373 143.103 113.819 152.561C130.201 162.02 134.43 179.768 134.43 179.768L135.867 186.01L139.565 179.604L155.971 151.188C158.793 146.301 165.02 135.603 168.205 121.379C171.39 107.156 171.507 89.3588 162.759 70.3689L160.107 72.3892L160.53 69.0817C118.886 72.9213 99.5063 105.716 93.9324 115.371L77.5267 143.786L73.8281 150.192ZM85.3655 140.954L98.5853 118.057C104.074 108.55 119.812 80.8239 157.726 76.512C165.214 93.7348 165.069 109.225 162.28 121.68C159.403 134.526 154.14 143.614 151.318 148.502L138.135 171.336C135.509 164.75 129.666 153.592 117.335 146.472C104.968 139.333 92.3677 139.929 85.3655 140.954Z" fill="#FF00A2"/>
<path d="M136.546 129.562C135.817 126.841 136.377 123.146 137.374 120.066C135.203 122.469 132.284 124.802 129.562 125.532C126.842 126.26 123.146 125.7 120.066 124.705C122.47 126.874 124.802 129.794 125.531 132.515C126.26 135.236 125.7 138.932 124.704 142.012C126.873 139.608 129.794 137.276 132.515 136.546C135.236 135.817 138.931 136.377 142.011 137.373C139.608 135.204 137.276 132.283 136.546 129.562Z" fill="#FF00A1"/>
<path d="M152.99 112.23C152.58 110.266 153.094 107.541 153.89 105.254C152.306 107.087 150.207 108.895 148.299 109.522C146.393 110.148 143.856 109.867 141.76 109.246C143.347 110.75 144.859 112.805 145.269 114.77C145.68 116.735 145.165 119.458 144.37 121.746C145.953 119.912 148.054 118.106 149.96 117.478C151.867 116.851 154.404 117.132 156.499 117.753C154.913 116.251 153.4 114.194 152.99 112.23Z" fill="#FF00A1"/>
<path d="M127.568 104.501C126.306 105.937 124.624 107.347 123.08 107.818C121.538 108.288 119.467 108.026 117.751 107.499C119.065 108.722 120.329 110.381 120.693 111.954C121.056 113.526 120.679 115.687 120.066 117.499C121.328 116.062 123.01 114.654 124.554 114.182C126.096 113.711 128.167 113.974 129.882 114.501C128.568 113.279 127.305 111.618 126.941 110.046C126.577 108.475 126.955 106.312 127.568 104.501Z" fill="#FF00A1"/>
<path d="M145.037 95.1047C144.822 93.8477 145.195 92.0828 145.735 90.5937C144.715 91.8055 143.375 93.0122 142.177 93.4543C140.981 93.8955 139.41 93.765 138.121 93.4062C139.077 94.3435 139.975 95.6371 140.191 96.8951C140.407 98.1525 140.033 99.917 139.493 101.406C140.513 100.194 141.854 98.988 143.051 98.5456C144.248 98.1038 145.818 98.2348 147.107 98.5931C146.152 97.6566 145.253 96.3622 145.037 95.1047Z" fill="#FF00A1"/>
<path d="M128 0C198.692 0 256 57.3076 256 128C256 198.692 198.692 256 128 256C57.3076 256 0 198.692 0 128C0 57.3076 57.3076 0 128 0ZM124.812 243.937C124.187 243.94 123.591 244.055 123.026 244.279L123.258 245.47C123.716 245.272 124.18 245.171 124.652 245.168C126.068 245.16 126.782 245.954 126.791 247.549C126.795 248.275 126.631 248.836 126.298 249.231C125.962 249.631 125.513 249.832 124.953 249.835C124.69 249.836 124.445 249.787 124.22 249.688C123.991 249.591 123.804 249.452 123.656 249.271L122.938 250.223C123.122 250.495 123.392 250.703 123.748 250.848C124.104 250.995 124.511 251.068 124.97 251.065C125.988 251.06 126.775 250.744 127.328 250.119C127.881 249.497 128.154 248.622 128.147 247.492C128.134 245.109 127.022 243.924 124.812 243.937ZM109.472 246.088C109.405 246.69 109.502 247.172 109.763 247.535C110.024 247.898 110.426 248.11 110.97 248.17C111.351 248.212 111.646 248.158 111.853 248.008C112.059 247.86 112.206 247.616 112.293 247.275L112.418 247.289L112.078 250.356L113.394 250.503L114.201 243.223L112.887 243.077L112.592 245.729L112.57 245.891C112.444 246.679 112.071 247.039 111.452 246.971C111.216 246.945 111.044 246.847 110.935 246.678C110.822 246.508 110.782 246.279 110.813 245.991L111.158 242.885L109.844 242.739L109.472 246.088ZM153.383 241.639C152.912 241.385 152.244 241.363 151.377 241.573C151.152 241.628 150.944 241.689 150.753 241.756C150.558 241.823 150.361 241.901 150.162 241.989L150.567 243.162C150.772 243.082 150.956 243.013 151.119 242.953C151.28 242.897 151.434 242.852 151.579 242.816C152.031 242.707 152.378 242.714 152.619 242.839C152.858 242.965 153.024 243.22 153.117 243.603L153.173 243.834V243.835L153.512 245.229L151.282 245.772L151.569 246.954L153.799 246.411L154.169 247.93L155.45 247.618L155.08 246.1L156.286 245.807L155.999 244.626L154.793 244.919L154.526 243.822L154.368 243.168C154.182 242.403 153.853 241.893 153.383 241.639ZM95.7461 240.785L96.4209 241.052L95.9902 242.916C95.8365 243.582 95.9424 244.14 96.3066 244.588C96.6702 245.039 97.3073 245.377 98.2178 245.601L99.3135 245.868L99.6787 244.72L98.3965 244.389C97.946 244.271 97.6209 244.123 97.4219 243.943C97.2191 243.766 97.1488 243.543 97.2109 243.273L97.2139 243.258C97.3153 243.306 97.417 243.35 97.5195 243.39C97.7128 243.464 97.9477 243.534 98.2236 243.598C98.9404 243.763 99.5286 243.74 99.9883 243.528C100.448 243.317 100.744 242.93 100.874 242.365C100.986 241.88 100.923 241.471 100.686 241.139C100.448 240.807 100.061 240.579 99.5254 240.455C99.2147 240.383 98.9373 240.369 98.6934 240.413C98.4455 240.459 98.2377 240.566 98.0693 240.73C97.9306 240.868 97.8247 241.048 97.748 241.268L97.6309 241.24L97.8066 240.108L95.9873 239.738L95.7461 240.785ZM83.209 236.856C83.6613 236.887 84.0223 236.951 84.292 237.047C84.5341 237.133 84.7059 237.229 84.8066 237.334C84.9073 237.439 84.9562 237.564 84.9531 237.708C84.95 237.852 84.9121 238.025 84.8398 238.228L83.1182 243.046L84.3594 243.49V243.489L85.7383 243.983L86.1475 242.838L84.7676 242.345L86.0977 238.625C86.3627 237.883 86.4207 237.296 86.2715 236.862C86.1192 236.428 85.7361 236.101 85.123 235.882C84.8473 235.783 84.5831 235.705 84.3301 235.649C84.077 235.594 83.8081 235.553 83.5234 235.527L83.209 236.856ZM167.292 237.753C166.674 237.489 165.945 237.513 165.105 237.824C164.907 237.898 164.682 237.989 164.432 238.1C164.181 238.21 163.91 238.35 163.619 238.521L164.173 239.648C164.381 239.526 164.587 239.413 164.792 239.31C164.998 239.209 165.21 239.118 165.43 239.037C165.918 238.856 166.34 238.835 166.693 238.975C166.888 239.053 167.053 239.181 167.192 239.357L164.113 240.499C164.168 240.704 164.236 240.917 164.317 241.137C164.605 241.912 165.013 242.433 165.542 242.698C166.071 242.964 166.682 242.968 167.375 242.711C168.083 242.449 168.551 242.026 168.779 241.441C169.004 240.858 168.969 240.17 168.675 239.376C168.373 238.561 167.912 238.02 167.292 237.753ZM98.2207 241.462C98.432 241.4 98.677 241.402 98.9561 241.467C99.1876 241.52 99.3541 241.605 99.4541 241.722C99.5532 241.841 99.5825 241.987 99.543 242.158C99.455 242.539 99.0781 242.652 98.4121 242.498C98.2346 242.457 98.0657 242.413 97.9062 242.366C97.7693 242.329 97.622 242.271 97.4619 242.196C97.5047 242.039 97.5867 241.895 97.71 241.765C97.8393 241.624 98.0095 241.523 98.2207 241.462ZM167.571 240.196C167.638 240.483 167.639 240.735 167.571 240.951C167.477 241.25 167.269 241.459 166.945 241.579C166.646 241.69 166.382 241.689 166.152 241.576C165.92 241.464 165.743 241.245 165.622 240.919L167.571 240.196ZM128 16C66.1441 16 16 66.1441 16 128C16 189.856 66.1441 240 128 240C189.856 240 240 189.856 240 128C240 66.1441 189.856 16 128 16ZM178.879 232.234L179.714 233.874L179.428 234.021C179.183 234.145 178.97 234.289 178.784 234.447L177.043 233.17L175.646 233.882L178.06 235.476C178.036 235.541 178.015 235.608 177.997 235.676C177.81 236.392 177.908 237.281 178.292 238.343L179.506 237.724C179.333 237.242 179.242 236.832 179.23 236.494C179.221 236.159 179.297 235.874 179.458 235.639C179.618 235.408 179.87 235.204 180.215 235.028L180.284 234.992L182.204 238.761L183.384 238.159L180.059 231.634L178.879 232.234ZM70.8154 230.942C71.2611 231.025 71.6124 231.13 71.8691 231.257C72.0994 231.371 72.2588 231.486 72.3467 231.602C72.4345 231.718 72.469 231.847 72.4492 231.99C72.4294 232.133 72.3717 232.301 72.2764 232.493L70.0059 237.079L71.1875 237.664V237.663L72.501 238.313L73.04 237.225L71.7266 236.573L73.4795 233.034C73.8289 232.328 73.9543 231.751 73.8564 231.303C73.7555 230.854 73.4134 230.484 72.8301 230.195C72.5677 230.065 72.3141 229.958 72.0693 229.873C71.8244 229.788 71.562 229.717 71.2822 229.658L70.8154 230.942ZM191.579 225.72C190.895 225.62 190.161 225.831 189.378 226.353C189.156 226.5 188.934 226.661 188.712 226.832C188.49 227.003 188.285 227.186 188.098 227.381L188.896 228.334C189.059 228.179 189.232 228.027 189.414 227.878C189.594 227.731 189.781 227.592 189.977 227.462C190.434 227.157 190.858 227.027 191.248 227.072C191.635 227.119 191.964 227.345 192.232 227.749C192.476 228.115 192.567 228.46 192.507 228.786C192.444 229.114 192.24 229.392 191.896 229.621C191.676 229.767 191.441 229.849 191.191 229.867C190.94 229.89 190.693 229.848 190.449 229.74L190.075 230.904C190.419 231.133 190.808 231.228 191.243 231.188C191.676 231.151 192.114 230.983 192.559 230.688C193.282 230.206 193.708 229.64 193.839 228.99C193.969 228.34 193.8 227.662 193.331 226.958C192.849 226.235 192.265 225.822 191.579 225.72ZM59.5635 223.659C59.7857 223.753 59.999 223.852 60.2041 223.954C60.4076 224.059 60.6081 224.175 60.8047 224.303C61.2414 224.586 61.5092 224.912 61.6084 225.279C61.6619 225.482 61.6568 225.691 61.5986 225.907L58.8457 224.119C58.7141 224.286 58.5837 224.467 58.4561 224.664C58.0058 225.357 57.8318 225.996 57.9346 226.579C58.0374 227.162 58.399 227.654 59.0186 228.057C59.6519 228.468 60.2712 228.591 60.876 228.425C61.478 228.257 62.0098 227.817 62.4707 227.107C62.9438 226.379 63.1021 225.686 62.9463 225.03C62.7886 224.377 62.3346 223.806 61.584 223.318C61.4065 223.203 61.1982 223.078 60.96 222.942C60.7219 222.807 60.4479 222.674 60.1377 222.542L59.5635 223.659ZM61.1533 226.712C60.9633 226.937 60.7622 227.088 60.5479 227.163C60.252 227.266 59.9593 227.224 59.6699 227.036C59.4024 226.862 59.2456 226.65 59.1992 226.398C59.1501 226.145 59.2205 225.872 59.4102 225.58L61.1533 226.712ZM202.675 217.556C202.059 217.464 201.467 217.659 200.898 218.142C200.33 218.624 200.042 219.177 200.032 219.8C200.023 220.423 200.295 221.059 200.847 221.709C201.401 222.362 201.985 222.733 202.599 222.822C203.215 222.914 203.807 222.719 204.375 222.236C204.943 221.754 205.232 221.201 205.241 220.578C205.252 219.958 204.981 219.321 204.427 218.669C203.875 218.019 203.291 217.648 202.675 217.556ZM201.711 219.099C201.952 218.894 202.219 218.83 202.513 218.904C202.806 218.984 203.102 219.198 203.396 219.545C203.693 219.895 203.856 220.219 203.885 220.52C203.911 220.822 203.803 221.076 203.562 221.28C203.32 221.486 203.052 221.551 202.761 221.475C202.469 221.398 202.174 221.184 201.877 220.834C201.582 220.487 201.419 220.161 201.389 219.858C201.36 219.558 201.468 219.305 201.711 219.099ZM47.3232 216.516C46.9368 216.982 46.7529 217.438 46.7715 217.885C46.7901 218.331 47.0099 218.729 47.4307 219.078C47.7263 219.323 48.0023 219.44 48.2578 219.428C48.5111 219.418 48.7675 219.294 49.0273 219.058L49.1406 219.151L48.6357 219.951L49.5449 220.705L52.8496 216.721L51.8311 215.876L50.1816 217.864C49.5708 218.601 49.0101 218.758 48.499 218.334C48.3161 218.182 48.2299 218 48.2402 217.789C48.2481 217.576 48.3514 217.349 48.5508 217.108L50.4922 214.767L49.4736 213.922L47.3232 216.516ZM211.707 208.348L213.563 210.079L212.762 210.939C212.754 210.948 212.745 210.957 212.737 210.966L210.185 209.979L209.136 211.104L212.085 212.088C212.04 212.262 212.017 212.437 212.021 212.613C212.039 213.186 212.314 213.721 212.845 214.216C213.335 214.673 213.852 214.877 214.396 214.828C214.941 214.779 215.467 214.482 215.976 213.937L216.891 212.955L216.89 212.954L217.657 212.134L212.586 207.404L211.707 208.348ZM215.909 212.267L215.107 213.128C214.903 213.347 214.68 213.456 214.438 213.458C214.197 213.46 213.958 213.351 213.723 213.131C213.489 212.913 213.363 212.683 213.346 212.439C213.33 212.198 213.425 211.968 213.629 211.749L214.431 210.888L215.909 212.267ZM41.5605 203.627C40.9461 203.615 40.306 203.928 39.6396 204.563L36.2275 207.82L37.0732 208.707L37.8086 208.119L37.873 208.187C37.6639 208.472 37.5689 208.747 37.5879 209.012C37.6024 209.277 37.7457 209.552 38.0176 209.837C38.4649 210.305 38.982 210.508 39.5684 210.443C40.1523 210.376 40.7539 210.047 41.373 209.456C41.9969 208.861 42.3539 208.275 42.4434 207.699C42.5305 207.121 42.352 206.6 41.9092 206.136C41.6598 205.875 41.3974 205.724 41.1221 205.686C40.8468 205.647 40.5667 205.728 40.2812 205.929L40.207 205.851L40.666 205.413C41.0027 205.092 41.3281 204.923 41.6416 204.907C41.9573 204.889 42.2776 205.041 42.6016 205.361L43.7822 206.528L44.583 205.697L43.502 204.636C42.8244 203.973 42.1773 203.637 41.5605 203.627ZM39.9629 206.395C40.2288 206.343 40.4923 206.454 40.7529 206.727C40.9911 206.976 41.0847 207.249 41.0342 207.545C40.9813 207.838 40.7831 208.149 40.4395 208.478C40.1075 208.794 39.7876 208.973 39.4805 209.015C39.1709 209.058 38.9004 208.958 38.6689 208.716C38.4353 208.471 38.345 208.209 38.3975 207.93C38.4415 207.683 38.6045 207.411 38.8877 207.115L39.0166 206.987C39.3792 206.641 39.6947 206.444 39.9629 206.395ZM30.791 194.526C30.9677 194.691 31.1351 194.856 31.293 195.022C31.4482 195.191 31.5963 195.369 31.7373 195.556C32.0507 195.972 32.1914 196.369 32.1592 196.748C32.1401 196.957 32.0644 197.152 31.9355 197.336L29.959 194.713C29.7783 194.825 29.5943 194.952 29.4072 195.093C28.7472 195.59 28.3656 196.13 28.2627 196.713C28.1599 197.296 28.3308 197.883 28.7754 198.473C29.2298 199.076 29.7696 199.402 30.3945 199.453C31.0177 199.501 31.6678 199.271 32.3438 198.762C33.0379 198.239 33.424 197.642 33.502 196.972C33.5772 196.304 33.3452 195.612 32.8066 194.897C32.6794 194.729 32.5271 194.54 32.3496 194.331C32.1721 194.122 31.9595 193.903 31.7129 193.673L30.791 194.526ZM31.2412 197.939C30.9856 198.086 30.7446 198.159 30.5176 198.156C30.2046 198.152 29.9439 198.012 29.7363 197.736C29.5444 197.482 29.4703 197.228 29.5127 196.976C29.5532 196.721 29.7122 196.489 29.9902 196.279L31.2412 197.939ZM228.004 186.964L230.32 188.283C231.109 188.733 231.339 189.246 231.011 189.823C230.893 190.03 230.735 190.149 230.536 190.182C230.336 190.217 230.11 190.164 229.858 190.021L227.144 188.474L226.488 189.624L229.416 191.291C229.942 191.591 230.424 191.693 230.86 191.597C231.297 191.501 231.65 191.215 231.921 190.74C232.111 190.406 232.178 190.115 232.121 189.865C232.067 189.618 231.901 189.387 231.623 189.172L231.686 189.061L234.367 190.589L235.022 189.438L228.658 185.813L228.004 186.964ZM237.197 174.58C236.397 174.241 235.683 174.216 235.054 174.508C234.427 174.801 233.93 175.38 233.562 176.246C233.458 176.492 233.36 176.747 233.269 177.013C233.177 177.278 233.107 177.543 233.058 177.809L234.248 178.166C234.299 177.947 234.36 177.725 234.431 177.5C234.5 177.278 234.58 177.059 234.672 176.844C234.887 176.338 235.17 175.997 235.521 175.82C235.87 175.647 236.268 175.654 236.714 175.844C237.118 176.015 237.385 176.254 237.514 176.56C237.641 176.868 237.623 177.213 237.462 177.594C237.359 177.836 237.208 178.034 237.009 178.187C236.811 178.343 236.581 178.443 236.318 178.487L236.646 179.666C237.058 179.668 237.436 179.533 237.778 179.261C238.119 178.992 238.393 178.611 238.602 178.12C238.941 177.32 238.987 176.613 238.738 175.998C238.49 175.383 237.976 174.911 237.197 174.58ZM17.8877 169.846L18.9404 172.246L18.7705 172.321C17.9488 171.825 17.1861 171.522 16.4834 171.41C15.7778 171.3 15.1255 171.376 14.5264 171.639C13.8854 171.92 13.4828 172.303 13.3184 172.787C13.151 173.273 13.219 173.863 13.5234 174.558C13.7181 175.002 14.0045 175.382 14.3818 175.7C14.7593 176.018 15.1603 176.216 15.585 176.293L16.084 175.253C15.7639 175.155 15.4732 175 15.2129 174.787C14.9513 174.571 14.7654 174.336 14.6543 174.083C14.5275 173.794 14.5061 173.547 14.5908 173.343C14.6713 173.137 14.8565 172.971 15.1455 172.845C15.7209 172.593 16.3803 172.577 17.124 172.798C17.8649 173.02 18.6889 173.489 19.5957 174.204L20.8125 173.671L19.9873 171.788H19.9863L18.9346 169.387L17.8877 169.846ZM241.937 161.513C241.102 161.268 240.394 161.316 239.81 161.653C239.229 161.992 238.812 162.59 238.561 163.449C238.501 163.652 238.44 163.887 238.379 164.154C238.318 164.421 238.269 164.723 238.231 165.058L239.467 165.287C239.493 165.047 239.525 164.814 239.564 164.588C239.607 164.363 239.661 164.138 239.727 163.913C239.873 163.413 240.108 163.064 240.432 162.863C240.611 162.754 240.812 162.697 241.036 162.69L240.113 165.843C240.311 165.921 240.522 165.994 240.747 166.06C241.54 166.292 242.202 166.275 242.73 166.01C243.259 165.744 243.628 165.257 243.836 164.548C244.048 163.823 243.988 163.195 243.655 162.663C243.322 162.135 242.749 161.751 241.937 161.513ZM241.936 162.887C242.206 163.004 242.408 163.155 242.541 163.339C242.724 163.593 242.768 163.886 242.671 164.217C242.581 164.523 242.423 164.734 242.195 164.851C241.967 164.97 241.685 164.981 241.351 164.883L241.936 162.887ZM15.6055 158.74C15.1286 157.181 13.7696 156.743 11.5283 157.429C9.22498 158.133 8.31151 159.265 8.78809 160.824C9.2649 162.384 10.6554 162.812 12.959 162.107C15.2003 161.422 16.0823 160.3 15.6055 158.74ZM11.918 158.703C13.3745 158.258 14.2115 158.39 14.4287 159.1C14.6495 159.822 14.0319 160.406 12.5752 160.852C11.0561 161.316 10.1857 161.187 9.96484 160.465C9.74785 159.755 10.3989 159.168 11.918 158.703ZM12.7295 159.135C12.5388 159.067 12.3138 159.073 12.0557 159.151C11.7973 159.23 11.6077 159.352 11.4873 159.515C11.3669 159.677 11.3345 159.852 11.3916 160.039C11.4487 160.226 11.5731 160.352 11.7637 160.42C11.9536 160.484 12.1781 160.477 12.4365 160.398C12.6948 160.319 12.8845 160.2 13.0059 160.04C13.1261 159.877 13.1576 159.703 13.1006 159.517C13.0435 159.33 12.9201 159.202 12.7295 159.135ZM241.792 152.057L242.913 152.248L243.366 149.584L245.789 152.639L246.91 152.83L247.609 148.729L246.487 148.538L246.038 151.172L243.628 148.051L242.507 147.859L241.792 152.057ZM11.0859 143.36L11.5557 145.938L11.374 145.973C10.689 145.3 10.0174 144.829 9.35938 144.559C8.69803 144.289 8.04505 144.213 7.40137 144.33C6.71296 144.456 6.23263 144.735 5.96094 145.168C5.68606 145.602 5.61689 146.192 5.75293 146.938C5.83994 147.415 6.03045 147.852 6.32422 148.248C6.61819 148.644 6.96292 148.93 7.3584 149.103L8.08301 148.206C7.79425 148.037 7.54791 147.819 7.34375 147.552C7.13893 147.281 7.01155 147.01 6.96191 146.737C6.90534 146.427 6.94186 146.182 7.07129 146.003C7.19695 145.821 7.41506 145.702 7.72559 145.646C8.34365 145.533 8.98935 145.67 9.66211 146.057C10.3316 146.444 11.0256 147.09 11.7432 147.995L13.0488 147.757L12.9961 147.469H12.9971L12.21 143.155L11.0859 143.36ZM247.59 134.123C245.21 133.998 243.962 135.039 243.847 137.246C243.814 137.87 243.894 138.472 244.085 139.049L245.286 138.887C245.115 138.418 245.043 137.948 245.067 137.477C245.142 136.063 245.975 135.397 247.567 135.48C248.292 135.518 248.843 135.716 249.219 136.071C249.597 136.43 249.772 136.889 249.743 137.448C249.729 137.711 249.666 137.953 249.554 138.172C249.444 138.394 249.294 138.573 249.104 138.71L250.013 139.481C250.295 139.314 250.519 139.056 250.684 138.71C250.852 138.364 250.949 137.961 250.973 137.503C251.026 136.485 250.756 135.682 250.164 135.094C249.576 134.506 248.718 134.182 247.59 134.123ZM8.98633 129.684C8.28474 129.729 7.7529 129.928 7.39062 130.28C7.02832 130.633 6.86655 131.112 6.90527 131.716C6.92967 132.096 7.04967 132.411 7.26465 132.661C7.47619 132.908 7.76474 133.064 8.13086 133.129L8.13867 133.256C6.57587 133.352 5.69095 132.415 5.4834 130.446L4.26172 130.623C4.42158 132.048 4.86492 133.088 5.5918 133.742C6.3187 134.397 7.33815 134.682 8.65039 134.598L9.11328 134.568C9.88643 134.519 10.4769 134.265 10.8848 133.809C11.2925 133.352 11.4727 132.742 11.4238 131.979C11.3738 131.199 11.1352 130.611 10.709 130.215C10.2821 129.815 9.70751 129.637 8.98633 129.684ZM9.07324 131.043C9.40784 131.022 9.67385 131.1 9.87109 131.276C10.0648 131.45 10.1735 131.707 10.1953 132.048C10.2172 132.389 10.1472 132.661 9.9873 132.863C9.82403 133.063 9.58702 133.173 9.27539 133.193C8.94404 133.215 8.68053 133.135 8.48633 132.955C8.29216 132.775 8.18361 132.509 8.16113 132.158C8.13956 131.821 8.20803 131.555 8.36523 131.362C8.52244 131.17 8.75848 131.063 9.07324 131.043ZM246.919 107.27C246.639 107.165 246.344 107.14 246.037 107.196C245.73 107.252 245.463 107.379 245.237 107.575C245.012 107.772 244.847 108.011 244.742 108.291C244.638 108.571 244.614 108.866 244.67 109.173C244.726 109.48 244.852 109.747 245.049 109.973C245.245 110.198 245.484 110.363 245.765 110.468C246.045 110.572 246.339 110.596 246.646 110.54C246.954 110.484 247.221 110.358 247.446 110.161C247.672 109.965 247.836 109.726 247.94 109.445C248.045 109.165 248.07 108.871 248.014 108.563C247.958 108.256 247.831 107.989 247.635 107.764C247.438 107.538 247.199 107.374 246.919 107.27ZM10.292 102.798C9.98393 102.745 9.69033 102.773 9.41113 102.881C9.13193 102.989 8.89518 103.156 8.70117 103.384C8.50721 103.612 8.38352 103.879 8.33105 104.188C8.27861 104.496 8.30645 104.789 8.41406 105.068C8.52168 105.347 8.68926 105.584 8.91699 105.778C9.14481 105.972 9.41362 106.095 9.72168 106.147C10.0296 106.2 10.3235 106.173 10.6025 106.065C10.8816 105.958 11.1176 105.789 11.3115 105.562C11.5055 105.334 11.6292 105.066 11.6816 104.758C11.734 104.45 11.7062 104.156 11.5986 103.877C11.491 103.598 11.3234 103.361 11.0957 103.167C10.868 102.973 10.5999 102.85 10.292 102.798ZM234.792 81.4141L235.323 82.626L237.689 81.5889C238.566 81.2047 239.138 81.3166 239.404 81.9248C239.5 82.1424 239.495 82.3432 239.391 82.5273C239.288 82.7145 239.094 82.8707 238.808 82.9961L236.021 84.2178L236.553 85.4297L239.639 84.0771C240.193 83.8342 240.562 83.509 240.746 83.1016C240.93 82.694 240.912 82.2392 240.692 81.7383C240.538 81.3867 240.344 81.1593 240.11 81.0557C239.88 80.9507 239.595 80.946 239.257 81.041L239.197 80.9053L240.007 80.418L239.533 79.3359L234.792 81.4141ZM14.2773 78.9912L15.3701 79.4541L16.1416 77.6338L21.4326 79.8799L21.9365 78.6934L16.6455 76.4473L17.4189 74.627L16.3262 74.1631L14.2773 78.9912ZM232.895 67.3906C232.286 67.2717 231.611 67.428 230.872 67.8604C230.136 68.2909 229.67 68.8021 229.473 69.3926C229.275 69.9833 229.365 70.6007 229.741 71.2441C230.118 71.8873 230.611 72.2674 231.223 72.3848C231.834 72.502 232.509 72.3458 233.245 71.915C233.984 71.4827 234.451 70.9718 234.646 70.3828C234.843 69.7921 234.753 69.1746 234.377 68.5312C234.001 67.888 233.506 67.508 232.895 67.3906ZM232.601 68.7168C232.903 68.7436 233.134 68.8928 233.293 69.165C233.454 69.4404 233.472 69.7154 233.346 69.9893C233.219 70.2631 232.958 70.5163 232.562 70.748C232.168 70.978 231.82 71.0818 231.517 71.0596C231.216 71.0356 230.985 70.8856 230.824 70.6104C230.665 70.3378 230.647 70.0628 230.771 69.7861C230.901 69.5107 231.162 69.2584 231.556 69.0283C231.952 68.7966 232.3 68.6929 232.601 68.7168ZM26.7627 63.9434C26.0443 63.5341 25.3963 63.3977 24.8203 63.5342C24.2446 63.6707 23.7738 64.0595 23.4082 64.7012C23.0344 65.3574 22.9483 65.9831 23.1494 66.5771C23.3521 67.1681 23.8207 67.673 24.5557 68.0918C25.3109 68.522 26.012 68.6402 26.6582 68.4463C27.3015 68.2508 27.8451 67.7641 28.2881 66.9863C28.3927 66.8026 28.5059 66.5882 28.627 66.3428C28.7481 66.0972 28.8651 65.8154 28.9785 65.498L27.8291 64.9893C27.7483 65.2165 27.6633 65.4357 27.5732 65.6465C27.4803 65.8558 27.3758 66.063 27.2598 66.2666C27.0021 66.7189 26.6927 67.0056 26.332 67.126C26.1324 67.1913 25.9229 67.198 25.7031 67.1523L27.3291 64.2998C27.1551 64.1782 26.9661 64.0593 26.7627 63.9434ZM25.0742 64.7852C25.3241 64.7214 25.6007 64.7758 25.9033 64.9482L24.874 66.7549C24.6381 66.5783 24.476 66.3854 24.3887 66.1758C24.2689 65.8866 24.2941 65.5917 24.4648 65.292C24.6227 65.015 24.8261 64.846 25.0742 64.7852ZM224.59 55.8018L225.565 57.0957L223.382 58.7412L222.229 57.2129L221.255 57.9473L222.407 59.4756V59.4766L223.2 60.5293L224.123 61.7539L225.098 61.0186L224.175 59.7939L227.1 57.5908L227.099 57.5898L227.334 57.4141L225.564 55.0664L224.59 55.8018ZM32.748 51.3477C32.5637 51.5434 32.3931 51.7336 32.2373 51.918C32.0835 52.0996 31.9416 52.2798 31.8105 52.458C31.2455 53.2264 30.9334 53.8803 30.876 54.4199C30.8159 54.9575 31.0106 55.3909 31.459 55.7207C31.7396 55.9271 32.0151 56.0234 32.2852 56.0078C32.5543 55.9876 32.8317 55.8683 33.1172 55.6504L34.5088 54.582C34.5986 54.5148 34.6766 54.4752 34.7422 54.4629C34.8077 54.4506 34.8717 54.4676 34.9346 54.5137C35.042 54.5927 35.0618 54.7303 34.9941 54.9268C34.9237 55.1214 34.7574 55.3973 34.4951 55.7539C34.4006 55.8824 34.26 56.0517 34.0732 56.2617C33.8864 56.4718 33.6502 56.7268 33.3652 57.0264L34.292 57.9014C34.4681 57.7442 34.655 57.5505 34.8525 57.3203C35.0547 57.0893 35.2726 56.8152 35.5059 56.498C36.0362 55.7769 36.3238 55.1609 36.3672 54.6514C36.4079 54.1401 36.2066 53.7214 35.7637 53.3955C35.4673 53.1776 35.1614 53.0905 34.8467 53.1338C34.5313 53.1726 34.1932 53.3362 33.832 53.624L32.6504 54.5547C32.5671 54.6186 32.4936 54.6576 32.4307 54.6719C32.367 54.6816 32.3019 54.6625 32.2363 54.6143C32.1315 54.5371 32.1245 54.3901 32.2148 54.1738C32.3046 53.9529 32.501 53.6363 32.8037 53.2246C32.8943 53.1014 33.0095 52.9536 33.1484 52.7812C33.2874 52.6088 33.455 52.4106 33.6514 52.1875L32.748 51.3477ZM228.254 55.0576C228.035 55.027 227.826 55.0867 227.626 55.2373C227.426 55.3881 227.31 55.5733 227.279 55.792C227.249 56.0108 227.308 56.2208 227.459 56.4209C227.61 56.621 227.795 56.7368 228.014 56.7676C228.232 56.7983 228.442 56.7378 228.643 56.5869C228.843 56.4361 228.959 56.251 228.989 56.0322C229.02 55.8136 228.959 55.6043 228.809 55.4043C228.658 55.2041 228.473 55.0884 228.254 55.0576ZM216.844 44.5723L215.988 43.6758L215.108 44.5146L215.965 45.4121L215.149 46.1904L214.661 46.6562C214.092 47.2 213.814 47.7391 213.829 48.2734C213.844 48.8079 214.161 49.3978 214.776 50.043C214.936 50.2102 215.093 50.3607 215.246 50.4932C215.402 50.6279 215.568 50.7594 215.744 50.8877L216.557 49.9502C216.385 49.8128 216.233 49.6884 216.1 49.5771C215.971 49.4659 215.854 49.3554 215.751 49.2471C215.43 48.9105 215.263 48.6059 215.251 48.334C215.241 48.0645 215.379 47.7943 215.664 47.5225L216.06 47.1445L216.059 47.1436L216.875 46.3652L218.46 48.0254L219.339 47.1865L217.754 45.5254L218.885 44.4473L217.975 43.4941L216.844 44.5723ZM40.7129 42.457L39.5713 41.3916L38.6719 42.3564L39.8145 43.4219L38.9688 44.3291L39.8574 45.1582L40.7031 44.25L41.5283 45.0195L42.0215 45.4795C42.5976 46.0167 43.1519 46.262 43.6846 46.2158C44.2173 46.1696 44.7882 45.8203 45.3965 45.168C45.5538 44.9992 45.6942 44.8345 45.8174 44.6738C45.9429 44.5107 46.0648 44.3369 46.1826 44.1533L45.1992 43.3965C45.072 43.5758 44.9568 43.7356 44.8535 43.875C44.75 44.0098 44.647 44.1318 44.5449 44.2412C44.2276 44.5814 43.9338 44.7659 43.6631 44.7939C43.3945 44.8194 43.1161 44.6973 42.8281 44.4287L42.4277 44.0557L41.6025 43.2861L43.168 41.6084L42.2783 40.7793L40.7129 42.457ZM206.062 35.123C205.403 35.1847 204.802 35.541 204.262 36.1924C203.707 36.8614 203.479 37.5399 203.578 38.2266C203.679 38.9106 204.091 39.5529 204.815 40.1533C205.021 40.3237 205.238 40.4907 205.466 40.6543C205.694 40.8179 205.928 40.9618 206.168 41.085L206.852 40.0469C206.656 39.9356 206.461 39.8137 206.266 39.6816C206.073 39.5517 205.887 39.4113 205.707 39.2617C205.284 38.9106 205.037 38.5419 204.969 38.1553C204.903 37.7708 205.024 37.3918 205.334 37.0186C205.614 36.6804 205.92 36.4935 206.249 36.458C206.581 36.4247 206.906 36.54 207.225 36.8037C207.428 36.972 207.574 37.1738 207.663 37.4082C207.756 37.6421 207.786 37.8911 207.753 38.1553L208.977 38.1797C209.097 37.785 209.076 37.3848 208.913 36.9795C208.753 36.576 208.467 36.204 208.056 35.8633C207.387 35.3086 206.722 35.0615 206.062 35.123ZM49.7842 34.1064L50.5742 35.0361L51.8086 33.9863L53.5791 36.0713L52.1201 37.3105L52.9102 38.2412L54.4443 36.9395L54.4434 36.9385L55.375 36.1494L55.374 36.1484L56.543 35.1562L55.7529 34.2256L54.584 35.2178L52.2139 32.4268L52.0244 32.2031L49.7842 34.1064ZM192.728 28.6631C192.407 29.1571 192.271 29.6141 192.32 30.0342C192.371 30.4516 192.602 30.7948 193.015 31.0625C193.301 31.2487 193.595 31.3256 193.895 31.2949C194.194 31.2641 194.473 31.1242 194.732 30.874L194.858 30.9561L194.353 31.8721L196.013 32.8926L196.598 31.9912L196.059 31.5127L196.559 30.7432L196.558 30.7422L198.233 28.1631L197.124 27.4424L195.786 29.5029C195.48 29.975 195.194 30.2687 194.929 30.3838C194.668 30.4979 194.409 30.4708 194.149 30.3027C193.95 30.1733 193.836 30.0041 193.809 29.7959C193.785 29.5867 193.854 29.3578 194.016 29.1094L195.699 26.5176L194.589 25.7969L192.728 28.6631ZM50.5488 30.6318C50.3287 30.6139 50.1226 30.6855 49.9316 30.8477C49.7407 31.0099 49.6361 31.2017 49.6182 31.4219C49.6003 31.642 49.6728 31.8481 49.835 32.0391C49.997 32.2298 50.1882 32.3345 50.4082 32.3525C50.6284 32.3705 50.8343 32.2979 51.0254 32.1357C51.2163 31.9736 51.3208 31.7826 51.3389 31.5625C51.3568 31.3424 51.2851 31.1363 51.123 30.9453C50.9608 30.7542 50.7691 30.6498 50.5488 30.6318ZM64.4404 23.9746C64.0071 23.8643 63.5626 23.9605 63.1074 24.2637C62.788 24.4765 62.5976 24.707 62.5361 24.9551C62.4728 25.2006 62.5175 25.4819 62.6699 25.7988L62.5469 25.8799L61.9268 25.168L60.9434 25.8223L63.8125 30.1299L64.9141 29.3965L63.4717 27.2314C62.9516 26.443 62.9658 25.8658 63.5146 25.5C63.7124 25.3683 63.9118 25.3377 64.1113 25.4082C64.3134 25.477 64.5007 25.6415 64.6738 25.9014L66.3604 28.4336L67.4619 27.6992L65.5938 24.8955C65.2581 24.3917 64.8737 24.0849 64.4404 23.9746ZM76.0146 17.3164L76.3662 18.1895L76.2842 18.2314C76.0709 17.9492 75.8338 17.7784 75.5742 17.7207C75.3162 17.6588 75.0118 17.7178 74.6611 17.8965C74.084 18.1906 73.742 18.6278 73.6357 19.208C73.5325 19.7866 73.675 20.4572 74.0635 21.2197C74.4551 21.9883 74.9144 22.4982 75.4404 22.749C75.9693 22.9983 76.5195 22.9776 77.0908 22.6865C77.4127 22.5225 77.632 22.3142 77.748 22.0615C77.8641 21.8088 77.8661 21.5166 77.7559 21.1855L77.8516 21.1357L78.1406 21.7021C78.3518 22.1167 78.4194 22.4765 78.3447 22.7812C78.2714 23.089 78.0349 23.3528 77.6348 23.5713L76.1777 24.3682L76.7441 25.373L78.0703 24.6426C78.8996 24.1835 79.4075 23.6594 79.5938 23.0713C79.7815 22.4861 79.6663 21.7827 79.248 20.9619L77.1064 16.7598L76.0146 17.3164ZM184.753 20.9746L184.64 20.9189C184.742 20.5808 184.742 20.2915 184.639 20.0518C184.54 19.8105 184.322 19.606 183.983 19.4385C183.403 19.1512 182.848 19.1382 182.319 19.3994C181.793 19.6621 181.341 20.1772 180.961 20.9443C180.578 21.7174 180.443 22.3902 180.556 22.9619C180.672 23.5349 181.017 23.9636 181.592 24.248C181.916 24.4083 182.213 24.4592 182.485 24.4014C182.757 24.3435 182.994 24.1718 183.193 23.8857L183.295 23.9355L183.022 24.9014L184.06 25.3604L187.309 18.7959L186.123 18.209L184.753 20.9746ZM182.89 20.7119C183.166 20.5652 183.454 20.5661 183.755 20.7148C184.058 20.865 184.233 21.0806 184.279 21.3613C184.322 21.6082 184.262 21.9192 184.097 22.2939L184.02 22.458C183.797 22.9072 183.568 23.2011 183.333 23.3389C183.101 23.4781 182.815 23.4644 182.477 23.2969C182.167 23.1438 181.986 22.9193 181.933 22.624C181.882 22.3302 181.962 21.9699 182.173 21.5439C182.376 21.133 182.615 20.8557 182.89 20.7119ZM75.5479 18.8418C75.8494 18.6881 76.1271 18.6762 76.3799 18.8066C76.6356 18.9357 76.8769 19.2242 77.1045 19.6709L77.1025 19.665L77.1064 19.6738L77.1846 19.834C77.3555 20.2055 77.4276 20.51 77.4014 20.7471C77.3743 21.0165 77.1926 21.2368 76.8564 21.4082C76.549 21.5649 76.2601 21.5767 75.9912 21.4434C75.7254 21.3085 75.4842 21.0296 75.2686 20.6064C75.0602 20.1975 74.9807 19.8393 75.0293 19.5332C75.0765 19.2244 75.2494 18.994 75.5479 18.8418ZM171.531 13.8145C170.829 13.5636 170.206 13.5902 169.662 13.8936C169.119 14.1939 168.703 14.7466 168.415 15.5527C168.128 16.3558 168.099 17.0475 168.327 17.627C168.556 18.2064 169.022 18.6212 169.724 18.8721C170.425 19.1228 171.048 19.097 171.592 18.7939C172.136 18.4906 172.552 17.9369 172.839 17.1338C173.127 16.3276 173.156 15.6359 172.927 15.0596C172.698 14.4804 172.233 14.0653 171.531 13.8145ZM170.289 15.0977C170.538 14.9239 170.811 14.8899 171.108 14.9961C171.409 15.1034 171.599 15.3028 171.678 15.5938C171.757 15.8848 171.72 16.2465 171.565 16.6787C171.412 17.1077 171.212 17.4109 170.965 17.5889C170.719 17.7638 170.446 17.7978 170.146 17.6904C169.848 17.5842 169.658 17.3848 169.576 17.0928C169.498 16.7987 169.536 16.4368 169.689 16.0078C169.844 15.576 170.044 15.2725 170.289 15.0977ZM155.395 10.1582L156.271 10.3594L155.615 13.1953L154.55 12.9492L154.295 14.0537L157.825 14.8682L158.08 13.7646L156.899 13.4912L157.146 12.4268C157.276 11.8654 157.454 11.4503 157.68 11.1816C157.905 10.9131 158.175 10.8152 158.489 10.8877C158.73 10.9434 158.889 11.0484 158.967 11.2031C159.048 11.3588 159.054 11.5857 158.985 11.8838L160.27 12.1807C160.423 11.518 160.412 10.9807 160.236 10.5693C160.064 10.1587 159.738 9.89768 159.259 9.78711C158.45 9.6005 157.926 9.91207 157.686 10.7217L157.506 10.6797L157.619 9.50879L157.552 9.49316H157.553L155.649 9.05371L155.395 10.1582ZM99.999 9.0332L100.287 10.2197L101.862 9.83594L102.508 12.4922L100.648 12.9453L100.938 14.1318L102.796 13.6787L102.797 13.6797L104.078 13.3682L104.077 13.3672L105.568 13.0059L105.279 11.8193L103.789 12.1816L102.925 8.62305L102.855 8.33887L99.999 9.0332ZM141.333 11.7861L142.614 11.9277L142.833 9.95312L143.663 10.0449C144.527 10.1408 145.22 9.99004 145.742 9.59277C146.265 9.1923 146.572 8.58141 146.663 7.75977C146.745 7.01893 146.573 6.41972 146.146 5.96289C145.718 5.50283 145.073 5.2248 144.209 5.12891L143.282 5.02637L142.098 4.89453L141.333 11.7861ZM116.323 6.21777C115.942 6.26457 115.668 6.38494 115.502 6.5791C115.335 6.77012 115.248 7.04189 115.242 7.39355L115.096 7.41113L114.861 6.49512L113.688 6.63965L114.319 11.7764L115.633 11.6152L115.318 9.05176C115.202 8.10188 115.473 7.58583 116.132 7.50488C116.368 7.47592 116.559 7.53789 116.706 7.69043C116.856 7.84251 116.949 8.07386 116.987 8.38379L117.358 11.4033L118.672 11.2422L118.261 7.89844C118.187 7.29752 117.981 6.85068 117.644 6.55762C117.306 6.26458 116.866 6.15116 116.323 6.21777ZM144.078 6.30859C144.502 6.35565 144.816 6.49841 145.022 6.7373C145.232 6.97669 145.314 7.29377 145.271 7.68848C145.224 8.10569 145.072 8.41791 144.813 8.625C144.558 8.83245 144.218 8.91325 143.794 8.86621L142.964 8.77344L143.248 6.21582L144.078 6.30859ZM102.242 6.27148C102.053 6.15658 101.837 6.12926 101.594 6.18848C101.35 6.2477 101.171 6.3718 101.056 6.56055C100.941 6.74918 100.913 6.96563 100.973 7.20898C101.032 7.45229 101.156 7.63126 101.345 7.74609C101.533 7.8609 101.75 7.88928 101.993 7.83008C102.236 7.77086 102.415 7.64654 102.53 7.45801C102.645 7.26933 102.673 7.05302 102.614 6.80957C102.555 6.56602 102.431 6.38639 102.242 6.27148Z" fill="#FF00A1"/>
</g>
<defs>
<radialGradient id="paint0_radial_49_734" cx="0" cy="0" r="1" gradientUnits="userSpaceOnUse" gradientTransform="translate(50 273) rotate(-61.2072) scale(488.95 348.591)">
<stop/>
<stop offset="1" stop-color="#020037"/>
</radialGradient>
<linearGradient id="paint1_linear_49_734" x1="173.589" y1="50.0363" x2="159.075" y2="75.1763" gradientUnits="userSpaceOnUse">
<stop stop-color="#FF00A2"/>
<stop offset="1" stop-color="#FF00A1"/>
</linearGradient>
<linearGradient id="paint2_linear_49_734" x1="98.17" y1="146.667" x2="68.4221" y2="198.192" gradientUnits="userSpaceOnUse">
<stop stop-color="#FF00A2"/>
<stop offset="1"/>
</linearGradient>
<linearGradient id="paint3_linear_49_734" x1="129.294" y1="162.233" x2="98.4019" y2="215.74" gradientUnits="userSpaceOnUse">
<stop stop-color="#FF00A2"/>
<stop offset="1"/>
</linearGradient>
<clipPath id="clip0_49_734">
<path d="M0 128C0 57.3076 57.3076 0 128 0C198.692 0 256 57.3076 256 128C256 198.692 198.692 256 128 256C57.3076 256 0 198.692 0 128Z" fill="white"/>
</clipPath>
</defs>
</svg>
