<svg width="256" height="256" viewBox="0 0 256 256" fill="none" xmlns="http://www.w3.org/2000/svg">
<path d="M0 128C0 57.3076 57.3076 0 128 0C198.692 0 256 57.3076 256 128C256 198.692 198.692 256 128 256C57.3076 256 0 198.692 0 128Z" fill="url(#paint0_radial_49_974)"/>
<path d="M156.745 73.8312C156.431 74.3204 156.331 74.906 156.482 75.4673C156.632 76.0281 157.02 76.5186 157.547 76.8229C158.074 77.1272 158.693 77.2181 159.253 77.0675C159.815 76.9174 160.272 76.5382 160.538 76.0213C160.766 75.5809 160.99 75.1474 161.21 74.7206C165.197 66.9942 169.212 59.2195 173.204 51.4825C173.426 51.0539 173.651 50.6182 173.868 50.1969C173.963 50.012 173.98 49.7918 173.92 49.5876C173.86 49.3833 173.728 49.2117 173.548 49.1078C173.368 49.0038 173.153 48.9752 172.946 49.0254C172.74 49.0757 172.558 49.2007 172.445 49.3756C172.189 49.7741 171.924 50.187 171.663 50.5928C166.959 57.9191 162.234 65.2832 157.536 72.599C157.276 73.0029 157.013 73.4137 156.745 73.8312Z" fill="url(#paint1_linear_49_974)"/>
<path d="M100.067 147.762C100.452 147.161 100.573 146.441 100.388 145.751C100.204 145.062 99.7281 144.461 99.082 144.088C98.4358 143.714 97.6767 143.603 96.9881 143.788C96.2985 143.973 95.7358 144.438 95.4074 145.072C94.9504 145.953 94.4934 146.834 94.0364 147.716C85.811 163.577 77.5855 179.437 69.36 195.298C68.9031 196.18 68.4461 197.061 67.9891 197.942C68.5238 197.106 69.0584 196.269 69.593 195.433C79.2162 180.379 88.8395 165.325 98.4627 150.271C98.9973 149.435 99.532 148.598 100.067 147.762Z" fill="url(#paint2_linear_49_974)"/>
<path d="M131.19 163.328C131.574 162.726 131.695 162.006 131.51 161.316C131.326 160.628 130.851 160.026 130.206 159.654C129.561 159.281 128.803 159.171 128.114 159.356C127.424 159.54 126.861 160.005 126.531 160.638C126.055 161.553 125.579 162.467 125.103 163.381C116.534 179.836 107.966 196.292 99.397 212.747C98.921 213.661 98.4449 214.576 97.9689 215.49C98.5226 214.621 99.0763 213.751 99.63 212.882C109.596 197.233 119.563 181.585 129.529 165.936C130.083 165.067 130.637 164.198 131.19 163.328Z" fill="url(#paint3_linear_49_974)"/>
<path fill-rule="evenodd" clip-rule="evenodd" d="M131.397 183.007C133.626 188.617 133.413 190.26 133.413 190.26L129.129 197.681L127.692 191.439C127.692 191.439 123.463 173.69 107.081 164.232C90.6992 154.774 73.2142 159.986 73.2142 159.986L67.0901 161.863L71.3746 154.442C73.7441 153.696 75.6096 153.039 78.6275 152.625C85.6297 151.6 98.2303 151.003 110.597 158.143C122.928 165.262 128.729 176.451 131.397 183.007Z" fill="#FF00A2"/>
<path fill-rule="evenodd" clip-rule="evenodd" d="M73.8281 150.192L79.9523 148.315C79.9523 148.315 97.4373 143.103 113.819 152.561C130.201 162.02 134.43 179.768 134.43 179.768L135.867 186.01L139.565 179.604L155.971 151.188C158.793 146.301 165.02 135.603 168.205 121.379C171.39 107.156 171.507 89.3588 162.759 70.3689L160.107 72.3892L160.53 69.0817C118.886 72.9213 99.5063 105.716 93.9324 115.371L77.5267 143.786L73.8281 150.192ZM85.3655 140.954L98.5853 118.057C104.074 108.55 119.812 80.8239 157.726 76.512C165.214 93.7348 165.069 109.225 162.28 121.68C159.403 134.526 154.14 143.614 151.318 148.502L138.135 171.336C135.509 164.75 129.666 153.592 117.335 146.472C104.968 139.333 92.3677 139.929 85.3655 140.954Z" fill="#FF00A2"/>
<path d="M136.546 129.562C135.817 126.841 136.377 123.146 137.374 120.066C135.203 122.469 132.284 124.802 129.562 125.532C126.842 126.26 123.146 125.7 120.066 124.705C122.47 126.874 124.802 129.794 125.531 132.515C126.26 135.236 125.7 138.932 124.704 142.012C126.873 139.608 129.794 137.276 132.515 136.546C135.236 135.817 138.931 136.377 142.011 137.373C139.608 135.204 137.276 132.283 136.546 129.562Z" fill="#FF00A1"/>
<path d="M152.99 112.23C152.58 110.266 153.094 107.541 153.89 105.254C152.306 107.087 150.207 108.895 148.299 109.522C146.393 110.148 143.856 109.867 141.76 109.246C143.347 110.75 144.859 112.805 145.269 114.77C145.68 116.735 145.165 119.458 144.37 121.746C145.953 119.912 148.054 118.106 149.96 117.478C151.867 116.851 154.404 117.132 156.499 117.753C154.913 116.251 153.4 114.194 152.99 112.23Z" fill="#FF00A1"/>
<path d="M127.568 104.501C126.306 105.937 124.624 107.347 123.08 107.818C121.538 108.288 119.467 108.026 117.751 107.499C119.065 108.722 120.329 110.381 120.693 111.954C121.056 113.526 120.679 115.687 120.066 117.499C121.328 116.062 123.01 114.654 124.554 114.182C126.096 113.711 128.167 113.974 129.882 114.501C128.568 113.279 127.305 111.618 126.941 110.046C126.577 108.475 126.955 106.312 127.568 104.501Z" fill="#FF00A1"/>
<path d="M145.037 95.1047C144.822 93.8477 145.195 92.0828 145.735 90.5937C144.715 91.8055 143.375 93.0122 142.177 93.4543C140.981 93.8955 139.41 93.765 138.121 93.4062C139.077 94.3435 139.975 95.6371 140.191 96.8951C140.407 98.1525 140.033 99.917 139.493 101.406C140.513 100.194 141.854 98.988 143.051 98.5456C144.248 98.1038 145.818 98.2348 147.107 98.5931C146.152 97.6566 145.253 96.3622 145.037 95.1047Z" fill="#FF00A1"/>
<defs>
<radialGradient id="paint0_radial_49_974" cx="0" cy="0" r="1" gradientUnits="userSpaceOnUse" gradientTransform="translate(50 273) rotate(-61.2072) scale(488.95 348.591)">
<stop/>
<stop offset="1" stop-color="#020037"/>
</radialGradient>
<linearGradient id="paint1_linear_49_974" x1="173.589" y1="50.0363" x2="159.075" y2="75.1763" gradientUnits="userSpaceOnUse">
<stop stop-color="#FF00A2"/>
<stop offset="1" stop-color="#FF00A1"/>
</linearGradient>
<linearGradient id="paint2_linear_49_974" x1="98.17" y1="146.667" x2="68.4221" y2="198.192" gradientUnits="userSpaceOnUse">
<stop stop-color="#FF00A2"/>
<stop offset="1"/>
</linearGradient>
<linearGradient id="paint3_linear_49_974" x1="129.294" y1="162.233" x2="98.4019" y2="215.74" gradientUnits="userSpaceOnUse">
<stop stop-color="#FF00A2"/>
<stop offset="1"/>
</linearGradient>
</defs>
</svg>
