<svg width="256" height="256" viewBox="0 0 256 256" fill="none" xmlns="http://www.w3.org/2000/svg">
<g clip-path="url(#clip0_74_2)">
<path d="M167.622 53.3341C167.189 54.0084 167.051 54.8156 167.259 55.5892C167.466 56.3623 168.001 57.0384 168.727 57.4578C169.454 57.8773 170.307 58.0025 171.08 57.795C171.853 57.5881 172.484 57.0654 172.851 56.3529C173.165 55.7459 173.474 55.1483 173.777 54.56C179.272 43.91 184.806 33.1934 190.31 22.5288C190.614 21.938 190.925 21.3374 191.224 20.7568C191.355 20.5019 191.379 20.1984 191.296 19.9169C191.214 19.6353 191.031 19.3988 190.783 19.2555C190.535 19.1122 190.239 19.0728 189.954 19.1419C189.669 19.2113 189.418 19.3835 189.263 19.6247C188.91 20.174 188.545 20.7431 188.185 21.3024C181.701 31.401 175.187 41.5516 168.712 51.6356C168.354 52.1924 167.991 52.7585 167.622 53.3341Z" fill="#FF00A1"/>
<path d="M89.4968 155.24C90.0275 154.411 90.195 153.419 89.9398 152.468C89.6859 151.519 89.0303 150.689 88.1396 150.175C87.2489 149.661 86.2026 149.508 85.2534 149.763C84.3029 150.017 83.5272 150.658 83.0746 151.532C82.4447 152.747 81.8148 153.961 81.1849 155.176C69.847 177.039 58.5091 198.901 47.1711 220.764C46.5413 221.978 45.9114 223.193 45.2815 224.407C46.0184 223.255 46.7553 222.102 47.4923 220.949C60.7569 200.199 74.0214 179.449 87.286 158.698C88.023 157.546 88.7599 156.393 89.4968 155.24Z" fill="url(#paint0_linear_74_2)"/>
<path d="M132.398 176.696C132.927 175.866 133.093 174.873 132.838 173.923C132.584 172.973 131.93 172.145 131.041 171.631C130.151 171.118 129.106 170.965 128.157 171.22C127.207 171.475 126.43 172.115 125.976 172.988C125.319 174.248 124.663 175.509 124.007 176.769C112.196 199.451 100.385 222.133 88.5739 244.815C87.9177 246.075 87.2615 247.335 86.6053 248.595C87.3686 247.397 88.1318 246.199 88.895 245C102.633 223.431 116.37 201.861 130.108 180.291C130.871 179.093 131.635 177.895 132.398 176.696Z" fill="url(#paint1_linear_74_2)"/>
<path fill-rule="evenodd" clip-rule="evenodd" d="M132.682 203.821C135.755 211.554 135.461 213.818 135.461 213.818L129.556 224.047L127.575 215.443C127.575 215.443 121.747 190.979 99.1658 177.942C76.585 164.905 52.4838 172.089 52.4838 172.089L44.0424 174.676L49.9481 164.447C53.2142 163.419 55.7856 162.514 59.9454 161.943C69.5972 160.529 86.9658 159.708 104.012 169.549C121.009 179.362 129.005 194.784 132.682 203.821Z" fill="#FF00A1"/>
<path fill-rule="evenodd" clip-rule="evenodd" d="M53.33 158.59L61.7714 156.003C61.7714 156.003 85.8726 148.818 108.453 161.855C131.034 174.892 136.863 199.357 136.863 199.357L138.843 207.961L143.941 199.131L166.555 159.963C170.445 153.226 179.028 138.48 183.418 118.874C187.809 99.269 187.969 74.7374 175.912 48.5618L172.256 51.3467L172.839 46.7876C115.438 52.0801 88.7246 97.2843 81.0415 110.592L58.4281 149.759L53.33 158.59ZM69.233 145.856L87.455 114.295C95.0211 101.19 116.714 62.973 168.975 57.0295C179.295 80.7693 179.096 102.12 175.252 119.288C171.286 136.996 164.031 149.523 160.141 156.26L141.97 187.734C138.351 178.656 130.296 163.276 113.299 153.462C96.2534 143.621 78.8848 144.443 69.233 145.856Z" fill="#FF00A1"/>
<path d="M139.78 130.153C138.776 126.402 139.546 121.309 140.921 117.063C137.929 120.376 133.905 123.592 130.153 124.597C126.403 125.602 121.309 124.83 117.064 123.458C120.377 126.448 123.592 130.473 124.597 134.224C125.601 137.974 124.83 143.068 123.457 147.314C126.447 144.001 130.473 140.786 134.223 139.78C137.973 138.775 143.067 139.547 147.313 140.919C144 137.93 140.786 133.904 139.78 130.153Z" fill="#FF00A1"/>
<path d="M162.446 106.262C161.881 103.555 162.589 99.8001 163.686 96.6475C161.503 99.1732 158.61 101.666 155.98 102.531C153.352 103.394 149.855 103.006 146.967 102.149C149.154 104.222 151.239 107.055 151.804 109.764C152.37 112.473 151.661 116.226 150.564 119.379C152.747 116.852 155.642 114.361 158.27 113.496C160.898 112.632 164.395 113.02 167.283 113.876C165.097 111.805 163.012 108.97 162.446 106.262Z" fill="#FF00A1"/>
<path d="M127.405 95.6095C125.666 97.589 123.346 99.5322 121.219 100.181C119.092 100.829 116.239 100.468 113.874 99.7409C115.685 101.427 117.427 103.714 117.928 105.882C118.429 108.049 117.909 111.028 117.064 113.525C118.803 111.544 121.122 109.603 123.25 108.953C125.376 108.304 128.23 108.667 130.595 109.392C128.783 107.709 127.042 105.419 126.54 103.252C126.039 101.087 126.56 98.1053 127.405 95.6095Z" fill="#FF00A1"/>
<path d="M151.484 82.6575C151.187 80.9249 151.702 78.4922 152.446 76.4396C151.04 78.11 149.192 79.7732 147.542 80.3826C145.893 80.9908 143.728 80.8109 141.951 80.3163C143.268 81.6083 144.507 83.3914 144.804 85.1253C145.102 86.8586 144.586 89.2907 143.842 91.3436C145.248 89.6721 147.096 88.0102 148.746 87.4005C150.396 86.7914 152.56 86.972 154.337 87.4659C153.02 86.175 151.782 84.3908 151.484 82.6575Z" fill="#FF00A1"/>
</g>
<defs>
<linearGradient id="paint0_linear_74_2" x1="86.7187" y1="153.636" x2="45.7145" y2="224.657" gradientUnits="userSpaceOnUse">
<stop stop-color="#FF00A1"/>
<stop offset="1" stop-opacity="0"/>
</linearGradient>
<linearGradient id="paint1_linear_74_2" x1="129.62" y1="175.092" x2="87.0384" y2="248.845" gradientUnits="userSpaceOnUse">
<stop stop-color="#FF00A1"/>
<stop offset="1" stop-opacity="0"/>
</linearGradient>
<clipPath id="clip0_74_2">
<path d="M0 128C0 57.3076 57.3076 0 128 0V0C198.692 0 256 57.3076 256 128V128C256 198.692 198.692 256 128 256V256C57.3076 256 0 198.692 0 128V128Z" fill="white"/>
</clipPath>
</defs>
</svg>
